<svg xmlns="http://www.w3.org/2000/svg" width="0" height="0" style="position:absolute"><symbol id="chevron-thin-down" viewBox="0 0 128 128"><path d="M111.475 39.098c1.741-1.715 4.538-1.715 6.266 0s1.734 4.486 0 6.202L67.13 95.412c-1.728 1.715-4.525 1.715-6.266 0L10.253 45.3a4.358 4.358 0 0 1 0-6.202 4.459 4.459 0 0 1 6.266 0L64.001 84.8l47.475-45.702z"/></symbol><symbol id="chevron-thin-left" viewBox="0 0 128 128"><path d="M88.902 111.475c1.715 1.741 1.715 4.538 0 6.266s-4.486 1.734-6.202 0L32.588 67.13c-1.715-1.728-1.715-4.525 0-6.266L82.7 10.253a4.358 4.358 0 0 1 6.202 0 4.459 4.459 0 0 1 0 6.266L43.2 64.001l45.702 47.475z"/></symbol><symbol id="chevron-thin-right" viewBox="0 0 128 128"><path d="M84.8 64L39.098 16.512c-1.715-1.728-1.715-4.525 0-6.266a4.358 4.358 0 0 1 6.202 0l50.112 50.611a4.459 4.459 0 0 1 0 6.266L45.3 117.734a4.353 4.353 0 0 1-6.202 0c-1.715-1.722-1.715-4.525 0-6.266L84.8 63.999z"/></symbol><symbol id="chevron-thin-up" viewBox="0 0 128 128"><path d="M16.525 88.902c-1.741 1.715-4.538 1.715-6.266 0s-1.734-4.486 0-6.202L60.87 32.588c1.728-1.715 4.525-1.715 6.266 0L117.747 82.7a4.358 4.358 0 0 1 0 6.202c-1.734 1.715-4.538 1.715-6.259 0L64 43.2 16.525 88.902z"/></symbol><symbol id="facebook-with-circle" viewBox="0 0 128 128"><path d="M64 2.56C30.067 2.56 2.56 30.067 2.56 64S30.067 125.44 64 125.44 125.44 97.933 125.44 64 97.933 2.56 64 2.56zm14.554 42.458h-9.235c-1.094 0-2.31 1.44-2.31 3.354v6.669h11.552l-1.747 9.51h-9.805v28.55H56.11v-28.55h-9.888v-9.51h9.888v-5.594c0-8.026 5.568-14.547 13.21-14.547h9.235v10.118z"/></symbol><symbol id="home" viewBox="0 0 128 128"><path d="M128 73.805L64 24.127 0 73.805V53.55L64 3.872l64 49.678zM112 72v48H80V88H48v32H16V72l48-36z"/></symbol><symbol id="linkedin-with-circle" viewBox="0 0 128 128"><path d="M64 2.56C30.067 2.56 2.56 30.067 2.56 64S30.067 125.44 64 125.44 125.44 97.933 125.44 64 97.933 2.56 64 2.56zM48.96 89.466H36.518V49.428H48.96v40.038zm-6.298-44.954c-3.93 0-6.47-2.784-6.47-6.227 0-3.514 2.618-6.214 6.63-6.214s6.47 2.701 6.547 6.214c0 3.443-2.534 6.227-6.707 6.227zM94.4 89.466H81.958V67.277c0-5.165-1.805-8.672-6.304-8.672-3.437 0-5.478 2.374-6.381 4.659-.333.813-.416 1.965-.416 3.11v23.085H56.409V62.195c0-4.998-.16-9.178-.326-12.774h10.81l.57 5.562h.25c1.638-2.611 5.651-6.464 12.365-6.464 8.186 0 14.323 5.485 14.323 17.274v23.674z"/></symbol><symbol id="menu" viewBox="0 0 128 128"><path d="M112 58.667H16c-3.2 0-5.333 2.133-5.333 5.333S12.8 69.333 16 69.333h96c3.2 0 5.333-2.133 5.333-5.333S115.2 58.667 112 58.667zM16 37.333h96c3.2 0 5.333-2.133 5.333-5.333S115.2 26.667 112 26.667H16c-3.2 0-5.333 2.133-5.333 5.333S12.8 37.333 16 37.333zm96 53.334H16c-3.2 0-5.333 2.133-5.333 5.333s2.133 5.333 5.333 5.333h96c3.2 0 5.333-2.133 5.333-5.333S115.2 90.667 112 90.667z"/></symbol><symbol id="printer" viewBox="0 0 128 128"><path d="M100 108v4.001A7.974 7.974 0 0 1 92.01 120H31.989a7.986 7.986 0 0 1-7.99-7.999V108h-8.023c-6.615 0-11.977-5.371-11.977-11.998V59.997c0-6.62 5.362-11.998 11.977-11.998h8.023V19.997a7.974 7.974 0 0 1 7.99-7.998H92.01a7.986 7.986 0 0 1 7.99 7.998v28.002h8.023c6.615 0 11.977 5.371 11.977 11.998v36.005c0 6.62-5.362 11.998-11.977 11.998H100zm-76-4V80h76v24h7.971c4.434 0 8.029-3.574 8.029-8.011V60.011c0-4.424-3.593-8.011-8.029-8.011H16.03c-4.434 0-8.029 3.574-8.029 8.011v35.978c0 4.424 3.593 8.011 8.029 8.011h7.971zm8-88c-2.209 0-4 1.812-4 3.988V48h68V19.988C96 17.785 94.181 16 92 16H32zm-4 68v28.012c0 2.203 1.819 3.988 4 3.988h60c2.209 0 4-1.812 4-3.988V84H28zm68-16a4 4 0 1 0 0-8 4 4 0 0 0 0 8z"/></symbol><symbol id="search" viewBox="0 0 128 128"><path d="M77.709 81.709A33.84 33.84 0 0 1 58 88c-18.778 0-34-15.222-34-34s15.222-34 34-34 34 15.222 34 34a33.85 33.85 0 0 1-6.291 19.709l22.339 22.339a5.574 5.574 0 0 1-.001 7.906l-.094.094a5.595 5.595 0 0 1-7.906.001L77.708 81.71zM58 80c14.359 0 26-11.641 26-26S72.359 28 58 28 32 39.641 32 54s11.641 26 26 26z"/></symbol><symbol id="twitter-with-circle" viewBox="0 0 128 128"><path d="M64 2.56C30.067 2.56 2.56 30.067 2.56 64S30.067 125.44 64 125.44 125.44 97.933 125.44 64 97.933 2.56 64 2.56zm24.992 50.33c.026.525.032 1.05.032 1.562 0 16-12.166 34.438-34.426 34.438a34.147 34.147 0 0 1-18.547-5.44c.941.115 1.907.16 2.886.16 5.67 0 10.886-1.926 15.027-5.178-5.293-.102-9.76-3.597-11.302-8.397.736.134 1.491.211 2.272.211 1.101 0 2.176-.147 3.187-.422-5.536-1.114-9.709-6.003-9.709-11.866v-.147a12.141 12.141 0 0 0 5.485 1.517 12.097 12.097 0 0 1-5.382-10.08c0-2.214.595-4.301 1.638-6.086 5.971 7.322 14.88 12.134 24.941 12.653a11.941 11.941 0 0 1-.314-2.765c0-6.675 5.414-12.102 12.102-12.102 3.475 0 6.624 1.472 8.832 3.827a24.294 24.294 0 0 0 7.68-2.938 12.159 12.159 0 0 1-5.318 6.701 24.292 24.292 0 0 0 6.95-1.914 24.546 24.546 0 0 1-6.035 6.266z"/></symbol></svg>