<?xml version="1.0" encoding="utf-8"?>
<!-- Generator: Adobe Illustrator 18.1.1, SVG Export Plug-In . SVG Version: 6.00 Build 0)  -->
<svg version="1.1" id="Layer_1" xmlns="http://www.w3.org/2000/svg" xmlns:xlink="http://www.w3.org/1999/xlink" x="0px" y="0px"
	 viewBox="647.5 -231.9 991.8 495.9" enable-background="new 647.5 -231.9 991.8 495.9" xml:space="preserve">
<path fill="#FFFFFF" d="M647.5-231.9h991.8v495.9H647.5L647.5-231.9L647.5-231.9z"/>
<path fill="#D00F14" d="M1639.2-33.6h-446.3v-198.4h-99.2v198.4H647.5v99.2h446.3v198.4h99.2V65.6h446.3V-33.6z"/>
<path fill="#D00F14" d="M1308.7,98.6h74L1639.2,227v36.9L1308.7,98.6z M978.1-66.6h-74L647.5-195v-36.9L978.1-66.6L978.1-66.6z
	 M978.1,98.6h74L721.4,263.9h-74L978.1,98.6z M1308.7-66.6h-74l330.6-165.3h74L1308.7-66.6L1308.7-66.6z"/>
<path fill="#00305B" d="M647.5,98.6v109.9L867.2,98.6H647.5z M1639.2,98.6v109.9L1419.5,98.6H1639.2z M647.5-66.6v-109.9L867.2-66.6
	H647.5L647.5-66.6z M1639.2-66.6v-109.9L1419.5-66.6H1639.2z M1060.7,263.9V112.7L758.4,263.9H1060.7z M1226,263.9V112.7
	l302.4,151.2H1226z M1060.7-231.9v151.2L758.4-231.9H1060.7z M1226-231.9v151.2l302.4-151.2H1226z"/>
</svg>
