<!-- Generated by IcoMoon.io -->
<svg version="1.1" xmlns="http://www.w3.org/2000/svg" width="128" height="128" viewBox="0 0 128 128">
<title>linkedin-with-circle</title>
<path d="M64 2.56c-33.933 0-61.44 27.507-61.44 61.44s27.507 61.44 61.44 61.44 61.44-27.507 61.44-61.44-27.507-61.44-61.44-61.44zM48.96 89.466h-12.442v-40.038h12.442v40.038zM42.662 44.512c-3.93 0-6.47-2.784-6.47-6.227 0-3.514 2.618-6.214 6.63-6.214s6.47 2.701 6.547 6.214c0 3.443-2.534 6.227-6.707 6.227zM94.4 89.466h-12.442v-22.189c0-5.165-1.805-8.672-6.304-8.672-3.437 0-5.478 2.374-6.381 4.659-0.333 0.813-0.416 1.965-0.416 3.11v23.085h-12.448v-27.264c0-4.998-0.16-9.178-0.326-12.774h10.81l0.57 5.562h0.25c1.638-2.611 5.651-6.464 12.365-6.464 8.186 0 14.323 5.485 14.323 17.274v23.674z"></path>
</svg>
