<!-- Generated by IcoMoon.io -->
<svg version="1.1" xmlns="http://www.w3.org/2000/svg" width="128" height="128" viewBox="0 0 128 128">
<title>menu</title>
<path d="M112 58.667h-96c-3.2 0-5.333 2.133-5.333 5.333s2.133 5.333 5.333 5.333h96c3.2 0 5.333-2.133 5.333-5.333s-2.133-5.333-5.333-5.333z"></path>
<path d="M16 37.333h96c3.2 0 5.333-2.133 5.333-5.333s-2.133-5.333-5.333-5.333h-96c-3.2 0-5.333 2.133-5.333 5.333s2.133 5.333 5.333 5.333z"></path>
<path d="M112 90.667h-96c-3.2 0-5.333 2.133-5.333 5.333s2.133 5.333 5.333 5.333h96c3.2 0 5.333-2.133 5.333-5.333s-2.133-5.333-5.333-5.333z"></path>
</svg>
