<!-- Generated by IcoMoon.io -->
<svg version="1.1" xmlns="http://www.w3.org/2000/svg" width="128" height="128" viewBox="0 0 128 128">
<title>printer</title>
<path d="M100 108v4.001c0 4.449-3.577 7.999-7.99 7.999h-60.021c-4.426 0-7.99-3.581-7.99-7.999v-4.001h-8.023c-6.615 0-11.977-5.371-11.977-11.998v-36.005c0-6.62 5.362-11.998 11.977-11.998h8.023v-28.002c0-4.449 3.577-7.998 7.99-7.998h60.021c4.426 0 7.99 3.581 7.99 7.998v28.002h8.023c6.615 0 11.977 5.371 11.977 11.998v36.005c0 6.62-5.362 11.998-11.977 11.998h-8.023zM24 104v-24h76v24h7.971c4.434 0 8.029-3.574 8.029-8.011v-35.978c0-4.424-3.593-8.011-8.029-8.011h-91.941c-4.434 0-8.029 3.574-8.029 8.011v35.978c0 4.424 3.593 8.011 8.029 8.011h7.971zM32 16c-2.209 0-4 1.812-4 3.988v28.012h68v-28.012c0-2.203-1.819-3.988-4-3.988h-60zM28 84v28.012c0 2.203 1.819 3.988 4 3.988h60c2.209 0 4-1.812 4-3.988v-28.012h-68zM96 68c2.209 0 4-1.791 4-4s-1.791-4-4-4c-2.209 0-4 1.791-4 4s1.791 4 4 4v0z"></path>
</svg>
