<!-- Generated by IcoMoon.io -->
<svg version="1.1" xmlns="http://www.w3.org/2000/svg" width="128" height="128" viewBox="0 0 128 128">
<title>search</title>
<path d="M77.709 81.709c-5.559 3.962-12.362 6.291-19.709 6.291-18.778 0-34-15.222-34-34s15.222-34 34-34c18.778 0 34 15.222 34 34 0 7.347-2.33 14.149-6.291 19.709l22.339 22.339c2.201 2.201 2.183 5.722-0.001 7.906l-0.094 0.094c-2.178 2.178-5.723 2.184-7.906 0.001l-22.339-22.339zM58 80c14.359 0 26-11.641 26-26s-11.641-26-26-26c-14.359 0-26 11.641-26 26s11.641 26 26 26v0z"></path>
</svg>
