<!-- Generated by IcoMoon.io -->
<svg version="1.1" xmlns="http://www.w3.org/2000/svg" width="128" height="128" viewBox="0 0 128 128">
<title>twitter-with-circle</title>
<path d="M64 2.56c-33.933 0-61.44 27.507-61.44 61.44s27.507 61.44 61.44 61.44 61.44-27.507 61.44-61.44-27.507-61.44-61.44-61.44zM88.992 52.89c0.026 0.525 0.032 1.050 0.032 1.562 0 16-12.166 34.438-34.426 34.438-6.835 0-13.197-1.997-18.547-5.44 0.941 0.115 1.907 0.16 2.886 0.16 5.67 0 10.886-1.926 15.027-5.178-5.293-0.102-9.76-3.597-11.302-8.397 0.736 0.134 1.491 0.211 2.272 0.211 1.101 0 2.176-0.147 3.187-0.422-5.536-1.114-9.709-6.003-9.709-11.866v-0.147c1.632 0.902 3.501 1.453 5.485 1.517-3.251-2.176-5.382-5.875-5.382-10.080 0-2.214 0.595-4.301 1.638-6.086 5.971 7.322 14.88 12.134 24.941 12.653-0.211-0.89-0.314-1.811-0.314-2.765 0-6.675 5.414-12.102 12.102-12.102 3.475 0 6.624 1.472 8.832 3.827 2.758-0.55 5.344-1.549 7.68-2.938-0.902 2.822-2.816 5.197-5.318 6.701 2.451-0.301 4.781-0.947 6.95-1.914-1.619 2.426-3.674 4.563-6.035 6.266z"></path>
</svg>
