<?xml version="1.0" encoding="utf-8"?>
<!-- Generator: Adobe Illustrator 20.1.0, SVG Export Plug-In . SVG Version: 6.00 Build 0)  -->
<svg version="1.1" id="Layer_1" xmlns="http://www.w3.org/2000/svg" xmlns:xlink="http://www.w3.org/1999/xlink" x="0px" y="0px"
	 viewBox="0 0 154.6 17.6" style="enable-background:new 0 0 154.6 17.6;" xml:space="preserve">
<style type="text/css">
	.st0{fill:#020201;}
</style>
<g id="_x23_020201ff">
	<path class="st0" d="M2.6,0.9C3.3,0.2,4.2,0,5.1,0C6,0,6.9,0,7.9,0c0,1,0,2,0,3C7.3,3,6.7,3,6.1,3c-0.4,0-0.8,0.3-0.8,0.6
		c0,0.7,0,1.3,0,2c0.9,0,1.8,0,2.7,0c-0.1,1-0.2,1.9-0.3,2.8c-0.8,0-1.6,0-2.3,0c0,2.8,0,5.6,0,8.4c-1.2,0-2.3,0-3.5,0
		c0-2.8,0-5.6,0-8.4c-0.6,0-1.1,0-1.7,0c0-0.9,0-1.9,0-2.8c0.6,0,1.1,0,1.7,0c0-0.9,0-1.8,0-2.8C1.8,2.1,2,1.4,2.6,0.9z"/>
</g>
<text transform="matrix(1 0 0 1 1500 1000)" style="font-family:'MyriadPro-Regular'; font-size:12px;">display:inline-block</text>
<text transform="matrix(1 0 0 1 1500 1000)" style="font-family:'MyriadPro-Regular'; font-size:12px;">display:inline-block</text>
<text transform="matrix(1 0 0 1 1500 1000)" style="font-family:'MyriadPro-Regular'; font-size:12px;">display:inline-block</text>
<text transform="matrix(1 0 0 1 1500 1000)" style="font-family:'MyriadPro-Regular'; font-size:12px;">display:inline-block</text>
<text transform="matrix(1 0 0 1 1500 1000)" style="font-family:'MyriadPro-Regular'; font-size:12px;">display:inline-block</text>
<g>
	<path d="M19.8,14.4V3.7H27V5h-5.8v3.3h5v1.3h-5v4.9H19.8z"/>
	<path d="M34.4,7.1l0.7-0.9l0.7,0.5l-0.8,1c0.3,0.4,0.5,0.8,0.6,1.1c0.2,0.5,0.2,1.1,0.2,1.7c0,1.5-0.4,2.5-1.2,3.2
		c-0.7,0.6-1.5,0.8-2.4,0.8c-0.8,0-1.5-0.2-2.1-0.6l-0.8,1l-0.7-0.5l0.8-1c-0.3-0.3-0.5-0.7-0.6-1c-0.2-0.5-0.3-1.1-0.3-1.8
		c0-1.5,0.4-2.5,1.1-3.2s1.6-1,2.5-1c0.4,0,0.8,0.1,1.1,0.2S34,6.9,34.4,7.1z M33.7,8.1c-0.4-0.3-0.9-0.5-1.4-0.5
		c-0.6,0-1.2,0.2-1.6,0.7C30.2,8.8,30,9.6,30,10.5c0,0.7,0.1,1.3,0.4,1.8L33.7,8.1z M34.2,8.8l-3.3,4.3c0.4,0.3,0.8,0.5,1.3,0.5
		c0.7,0,1.2-0.2,1.7-0.7c0.4-0.5,0.7-1.2,0.7-2.2c0-0.4,0-0.7-0.1-1C34.4,9.4,34.4,9.1,34.2,8.8z"/>
	<path d="M37.8,14.4V3.7h1.3v10.7H37.8z"/>
	<path d="M40.9,15.1l1.3,0.2c0.1,0.4,0.2,0.7,0.4,0.9c0.3,0.2,0.8,0.4,1.3,0.4c0.6,0,1.1-0.1,1.4-0.4s0.6-0.6,0.7-1
		c0.1-0.3,0.1-0.8,0.1-1.7c-0.6,0.7-1.3,1-2.2,1c-1.1,0-1.9-0.4-2.5-1.2s-0.9-1.7-0.9-2.8c0-0.7,0.1-1.4,0.4-2.1
		c0.3-0.6,0.7-1.1,1.2-1.5c0.5-0.3,1.1-0.5,1.8-0.5c0.9,0,1.7,0.4,2.3,1.1V6.7h1.2v6.7c0,1.2-0.1,2.1-0.4,2.6
		c-0.2,0.5-0.6,0.9-1.2,1.2c-0.5,0.3-1.2,0.4-2,0.4c-0.9,0-1.7-0.2-2.2-0.6C41.2,16.5,40.9,15.9,40.9,15.1z M42,10.4
		c0,1,0.2,1.8,0.6,2.2s0.9,0.7,1.5,0.7c0.6,0,1.1-0.2,1.5-0.7c0.4-0.5,0.6-1.2,0.6-2.2c0-1-0.2-1.7-0.6-2.2
		c-0.4-0.5-0.9-0.7-1.5-0.7c-0.6,0-1.1,0.2-1.5,0.7C42.2,8.8,42,9.5,42,10.4z"/>
	<path d="M53.2,10.5c0-1.4,0.4-2.5,1.2-3.2c0.7-0.6,1.5-0.9,2.4-0.9c1.1,0,1.9,0.4,2.6,1.1c0.7,0.7,1,1.7,1,2.9c0,1-0.1,1.8-0.5,2.4
		c-0.3,0.6-0.7,1-1.3,1.3c-0.6,0.3-1.2,0.5-1.9,0.5c-1.1,0-2-0.3-2.6-1C53.5,12.9,53.2,11.9,53.2,10.5z M54.5,10.5
		c0,1,0.2,1.7,0.7,2.2c0.4,0.5,1,0.7,1.6,0.7c0.7,0,1.2-0.2,1.6-0.7c0.4-0.5,0.7-1.3,0.7-2.3c0-1-0.2-1.7-0.7-2.2
		c-0.4-0.5-1-0.7-1.6-0.7c-0.7,0-1.2,0.2-1.6,0.7S54.5,9.5,54.5,10.5z"/>
	<path d="M61.5,12.1l1.3-0.2c0.1,0.5,0.3,0.9,0.6,1.2c0.3,0.3,0.8,0.4,1.4,0.4c0.6,0,1.1-0.1,1.3-0.4c0.3-0.2,0.4-0.5,0.4-0.9
		c0-0.3-0.1-0.5-0.4-0.7c-0.2-0.1-0.6-0.3-1.3-0.4c-1-0.2-1.6-0.5-2-0.6c-0.4-0.2-0.7-0.4-0.8-0.7c-0.2-0.3-0.3-0.7-0.3-1
		c0-0.3,0.1-0.7,0.2-1c0.2-0.3,0.4-0.5,0.6-0.7c0.2-0.2,0.5-0.3,0.8-0.4c0.4-0.1,0.7-0.2,1.1-0.2c0.6,0,1.1,0.1,1.6,0.3
		c0.5,0.2,0.8,0.4,1,0.7c0.2,0.3,0.4,0.7,0.5,1.2l-1.3,0.2c-0.1-0.4-0.2-0.7-0.5-0.9c-0.3-0.2-0.7-0.3-1.2-0.3c-0.6,0-1,0.1-1.3,0.3
		S63,8.3,63,8.6C63,8.7,63,8.9,63.1,9c0.1,0.1,0.3,0.3,0.5,0.4c0.1,0,0.5,0.2,1.2,0.3c0.9,0.2,1.6,0.5,2,0.6
		c0.4,0.2,0.7,0.4,0.9,0.7s0.3,0.7,0.3,1.1c0,0.4-0.1,0.9-0.4,1.2c-0.3,0.4-0.6,0.7-1.1,0.9c-0.5,0.2-1,0.3-1.6,0.3
		c-1,0-1.8-0.2-2.3-0.6C62,13.6,61.6,12.9,61.5,12.1z"/>
	<path d="M73.7,17.4V6.7h1.2v1c0.3-0.4,0.6-0.7,1-0.9c0.4-0.2,0.8-0.3,1.3-0.3c0.7,0,1.2,0.2,1.8,0.5s0.9,0.8,1.2,1.4
		c0.3,0.6,0.4,1.3,0.4,2c0,0.8-0.1,1.5-0.4,2.2c-0.3,0.6-0.7,1.1-1.2,1.5c-0.5,0.3-1.1,0.5-1.7,0.5c-0.4,0-0.8-0.1-1.2-0.3
		c-0.3-0.2-0.6-0.4-0.9-0.7v3.8H73.7z M74.9,10.6c0,1,0.2,1.7,0.6,2.2c0.4,0.5,0.9,0.7,1.5,0.7c0.6,0,1.1-0.2,1.5-0.7
		c0.4-0.5,0.6-1.3,0.6-2.3c0-1-0.2-1.7-0.6-2.2c-0.4-0.5-0.9-0.7-1.5-0.7c-0.6,0-1.1,0.3-1.5,0.8C75.1,8.8,74.9,9.6,74.9,10.6z"/>
	<path d="M87.1,13.5c-0.5,0.4-1,0.7-1.4,0.9c-0.5,0.2-0.9,0.3-1.5,0.3c-0.9,0-1.5-0.2-2-0.6c-0.5-0.4-0.7-1-0.7-1.6
		c0-0.4,0.1-0.7,0.3-1c0.2-0.3,0.4-0.6,0.7-0.8c0.3-0.2,0.6-0.3,0.9-0.4c0.3-0.1,0.6-0.1,1.2-0.2c1.1-0.1,1.8-0.3,2.4-0.5
		c0-0.2,0-0.3,0-0.3c0-0.5-0.1-0.9-0.4-1.1c-0.3-0.3-0.8-0.4-1.5-0.4c-0.6,0-1.1,0.1-1.4,0.3c-0.3,0.2-0.5,0.6-0.7,1.2l-1.3-0.2
		c0.1-0.6,0.3-1,0.6-1.3s0.7-0.6,1.2-0.8c0.5-0.2,1.1-0.3,1.8-0.3c0.7,0,1.2,0.1,1.6,0.2c0.4,0.2,0.7,0.4,0.9,0.6s0.3,0.5,0.4,0.9
		c0,0.2,0.1,0.6,0.1,1.2v1.8c0,1.2,0,2,0.1,2.3c0.1,0.3,0.2,0.6,0.3,0.9h-1.4C87.2,14.2,87.1,13.8,87.1,13.5z M87,10.5
		c-0.5,0.2-1.2,0.4-2.2,0.5c-0.5,0.1-0.9,0.2-1.1,0.3s-0.4,0.2-0.5,0.4c-0.1,0.2-0.2,0.4-0.2,0.6c0,0.4,0.1,0.6,0.4,0.9
		c0.3,0.2,0.7,0.4,1.2,0.4c0.5,0,1-0.1,1.4-0.3c0.4-0.2,0.7-0.5,0.9-0.9C86.9,12,87,11.6,87,11V10.5z M83.8,4.6
		c0-0.4,0.1-0.7,0.4-0.9c0.3-0.3,0.6-0.4,0.9-0.4c0.4,0,0.7,0.1,0.9,0.4s0.4,0.6,0.4,0.9c0,0.4-0.1,0.7-0.4,1S85.5,6,85.2,6
		c-0.4,0-0.7-0.1-0.9-0.4C84,5.3,83.8,5,83.8,4.6z M84.4,4.6c0,0.2,0.1,0.4,0.2,0.6c0.2,0.2,0.3,0.2,0.5,0.2c0.2,0,0.4-0.1,0.5-0.2
		C85.9,5.1,86,4.9,86,4.7s-0.1-0.4-0.2-0.6c-0.2-0.2-0.3-0.2-0.5-0.2c-0.2,0-0.4,0.1-0.5,0.2C84.5,4.2,84.4,4.4,84.4,4.6z"/>
	<path d="M94.9,14.4V7.7h-1.2v-1h1.2V5.8c0-0.5,0-0.9,0.1-1.2c0.1-0.3,0.3-0.6,0.7-0.8C96,3.6,96.4,3.5,97,3.5c0.4,0,0.8,0,1.2,0.1
		L98,4.8c-0.3,0-0.5-0.1-0.8-0.1c-0.4,0-0.7,0.1-0.8,0.3s-0.2,0.5-0.2,1v0.7h1.5v1h-1.5v6.8H94.9z"/>
	<path d="M103.8,13.5c-0.5,0.4-1,0.7-1.4,0.9c-0.5,0.2-0.9,0.3-1.5,0.3c-0.9,0-1.5-0.2-2-0.6c-0.5-0.4-0.7-1-0.7-1.6
		c0-0.4,0.1-0.7,0.3-1c0.2-0.3,0.4-0.6,0.7-0.8c0.3-0.2,0.6-0.3,0.9-0.4c0.3-0.1,0.6-0.1,1.2-0.2c1.1-0.1,1.8-0.3,2.4-0.5
		c0-0.2,0-0.3,0-0.3c0-0.5-0.1-0.9-0.4-1.1c-0.3-0.3-0.8-0.4-1.5-0.4c-0.6,0-1.1,0.1-1.4,0.3c-0.3,0.2-0.5,0.6-0.7,1.2l-1.3-0.2
		c0.1-0.6,0.3-1,0.6-1.3s0.7-0.6,1.2-0.8c0.5-0.2,1.1-0.3,1.8-0.3c0.7,0,1.2,0.1,1.6,0.2c0.4,0.2,0.7,0.4,0.9,0.6s0.3,0.5,0.4,0.9
		c0,0.2,0.1,0.6,0.1,1.2v1.8c0,1.2,0,2,0.1,2.3c0.1,0.3,0.2,0.6,0.3,0.9H104C103.9,14.2,103.8,13.8,103.8,13.5z M103.7,10.5
		c-0.5,0.2-1.2,0.4-2.2,0.5c-0.5,0.1-0.9,0.2-1.1,0.3s-0.4,0.2-0.5,0.4c-0.1,0.2-0.2,0.4-0.2,0.6c0,0.4,0.1,0.6,0.4,0.9
		c0.3,0.2,0.7,0.4,1.2,0.4c0.5,0,1-0.1,1.4-0.3c0.4-0.2,0.7-0.5,0.9-0.9c0.1-0.3,0.2-0.7,0.2-1.3V10.5z"/>
	<path d="M112.1,11.6l1.3,0.2c-0.1,0.9-0.5,1.6-1.1,2.1c-0.6,0.5-1.3,0.8-2.2,0.8c-1.1,0-1.9-0.3-2.6-1c-0.6-0.7-1-1.7-1-3
		c0-0.8,0.1-1.6,0.4-2.2c0.3-0.6,0.7-1.1,1.3-1.4c0.6-0.3,1.2-0.5,1.9-0.5c0.8,0,1.5,0.2,2.1,0.6c0.5,0.4,0.9,1,1,1.8L112,9.1
		c-0.1-0.5-0.3-0.9-0.6-1.2c-0.3-0.3-0.7-0.4-1.1-0.4c-0.7,0-1.2,0.2-1.6,0.7c-0.4,0.5-0.6,1.2-0.6,2.3c0,1,0.2,1.8,0.6,2.3
		s0.9,0.7,1.6,0.7c0.5,0,0.9-0.2,1.3-0.5S112,12.2,112.1,11.6z"/>
	<path d="M119.9,11.9l1.4,0.2c-0.2,0.8-0.6,1.4-1.2,1.9c-0.6,0.4-1.3,0.7-2.2,0.7c-1.1,0-2-0.4-2.7-1.1c-0.7-0.7-1-1.7-1-2.9
		c0-1.3,0.3-2.3,1-3s1.5-1.1,2.6-1.1c1,0,1.9,0.4,2.5,1.1c0.7,0.7,1,1.7,1,3c0,0.1,0,0.2,0,0.4h-5.8c0,0.9,0.3,1.5,0.7,2
		s1,0.7,1.6,0.7c0.5,0,0.9-0.1,1.2-0.4S119.7,12.5,119.9,11.9z M115.5,9.8h4.3c-0.1-0.7-0.2-1.1-0.5-1.5c-0.4-0.5-1-0.8-1.6-0.8
		c-0.6,0-1.1,0.2-1.5,0.6C115.8,8.6,115.6,9.1,115.5,9.8z"/>
	<path d="M124.1,14.4h-1.2V3.7h1.3v3.8c0.6-0.7,1.3-1,2.1-1c0.5,0,0.9,0.1,1.4,0.3c0.4,0.2,0.8,0.5,1.1,0.8c0.3,0.3,0.5,0.8,0.6,1.3
		c0.2,0.5,0.2,1,0.2,1.6c0,1.3-0.3,2.4-1,3.1s-1.5,1.1-2.4,1.1c-0.9,0-1.6-0.4-2.2-1.2V14.4z M124.1,10.5c0,0.9,0.1,1.6,0.4,2
		c0.4,0.7,1,1,1.7,1c0.6,0,1.1-0.2,1.5-0.8c0.4-0.5,0.6-1.2,0.6-2.2c0-1-0.2-1.8-0.6-2.2c-0.4-0.5-0.9-0.7-1.5-0.7
		c-0.6,0-1.1,0.3-1.5,0.8C124.3,8.8,124.1,9.5,124.1,10.5z"/>
	<path d="M130.7,10.5c0-1.4,0.4-2.5,1.2-3.2c0.7-0.6,1.5-0.9,2.4-0.9c1.1,0,1.9,0.4,2.6,1.1c0.7,0.7,1,1.7,1,2.9
		c0,1-0.1,1.8-0.5,2.4c-0.3,0.6-0.7,1-1.3,1.3c-0.6,0.3-1.2,0.5-1.9,0.5c-1.1,0-2-0.3-2.6-1C131.1,12.9,130.7,11.9,130.7,10.5z
		 M132.1,10.5c0,1,0.2,1.7,0.7,2.2c0.4,0.5,1,0.7,1.6,0.7c0.7,0,1.2-0.2,1.6-0.7c0.4-0.5,0.7-1.3,0.7-2.3c0-1-0.2-1.7-0.7-2.2
		c-0.4-0.5-1-0.7-1.6-0.7c-0.7,0-1.2,0.2-1.6,0.7S132.1,9.5,132.1,10.5z"/>
	<path d="M139.1,10.5c0-1.4,0.4-2.5,1.2-3.2c0.7-0.6,1.5-0.9,2.4-0.9c1.1,0,1.9,0.4,2.6,1.1c0.7,0.7,1,1.7,1,2.9
		c0,1-0.1,1.8-0.5,2.4c-0.3,0.6-0.7,1-1.3,1.3c-0.6,0.3-1.2,0.5-1.9,0.5c-1.1,0-2-0.3-2.6-1C139.4,12.9,139.1,11.9,139.1,10.5z
		 M140.4,10.5c0,1,0.2,1.7,0.7,2.2c0.4,0.5,1,0.7,1.6,0.7c0.7,0,1.2-0.2,1.6-0.7c0.4-0.5,0.7-1.3,0.7-2.3c0-1-0.2-1.7-0.7-2.2
		c-0.4-0.5-1-0.7-1.6-0.7c-0.7,0-1.2,0.2-1.6,0.7S140.4,9.5,140.4,10.5z"/>
	<path d="M147.9,14.4V3.7h1.3v6.1l3.1-3.2h1.7l-3,2.9l3.3,4.9h-1.6l-2.6-4l-0.9,0.9v3.1H147.9z"/>
</g>
</svg>
