<?xml version="1.0" encoding="utf-8"?>
<!-- Generator: Adobe Illustrator 20.1.0, SVG Export Plug-In . SVG Version: 6.00 Build 0)  -->
<svg version="1.1" id="Layer_1" xmlns="http://www.w3.org/2000/svg" xmlns:xlink="http://www.w3.org/1999/xlink" x="0px" y="0px"
	 viewBox="0 0 329 53" style="enable-background:new 0 0 329 53;" xml:space="preserve">
<style type="text/css">
	.st0{fill:#F05123;}
	.st1{fill:#FFFFFF;}
</style>
<rect class="st0" width="329" height="53"/>
<path class="st1" d="M81,47.8c2.5,0,3.8-1,3.8-2.9c0-1.5-1-2.4-3.1-2.4h-2l-1,5.3H81z M81.8,48.3c-0.3,0-0.5,0-0.8,0h-2.4l-0.9,4.6
	h-0.7l2.1-10.9h2.6c2.4,0,3.7,1,3.7,2.9c0,1.8-1.1,3-3,3.3l2.4,4.7h-0.8L81.8,48.3z"/>
<path class="st1" d="M93.1,49.4c0-1.5-1.1-2.7-2.7-2.7c-1.8,0-3.1,1.3-3.1,3.1c0,1.5,1.1,2.7,2.8,2.7C91.8,52.5,93.1,51.1,93.1,49.4
	 M86.6,49.8c0-2,1.7-3.6,3.7-3.6c1.9,0,3.4,1.5,3.4,3.2c0,2-1.6,3.6-3.7,3.6C88.1,53,86.6,51.5,86.6,49.8"/>
<path class="st1" d="M95.7,51.6l2-10.4h0.7l-2,10.5c-0.1,0.4,0,0.6,0.3,0.6h0.8l-0.1,0.5h-0.9C95.8,52.9,95.6,52.3,95.7,51.6"/>
<path class="st1" d="M105.6,49.4c0-1.5-1-2.6-2.5-2.6c-1.8,0-3,1.4-3,3.2c0,1.5,0.9,2.6,2.4,2.6C104.2,52.5,105.6,51.2,105.6,49.4
	 M99.3,49.8c0-2.1,1.6-3.7,3.6-3.7c1.4,0,2.6,1,2.8,2.2l1.4-7.1h0.7l-2,10.5c-0.1,0.4,0,0.6,0.3,0.6h0.7l-0.1,0.5H106
	c-0.8,0-1-0.5-0.8-1.3l0.1-0.3c-0.6,1-1.8,1.7-2.9,1.7C100.5,53,99.3,51.6,99.3,49.8"/>
<path class="st1" d="M112.3,50.9l0.6-0.3c0.6,1,1.5,1.9,3.2,1.9c1.9,0,2.9-1,2.9-2.5c0-1-0.6-1.6-1.8-2.3l-0.9-0.5
	c-1.3-0.8-2-1.6-2-2.7c0-1.7,1.5-2.6,2.9-2.6s2.3,0.8,2.8,1.6l-0.5,0.3c-0.5-0.8-1.1-1.4-2.3-1.4c-1.2,0-2.2,0.7-2.2,2
	c0,1,0.5,1.5,1.6,2.2l0.9,0.6c1.4,0.9,2.2,1.6,2.2,2.9c0,1.7-1.3,3-3.6,3C114.1,53,112.9,51.9,112.3,50.9"/>
<path class="st1" d="M122.1,52.9h-0.7l2.2-11.6h0.7l-1.5,8.2c0,0.2-0.1,0.5-0.2,0.6l4.4-3.7h0.8l-3.3,2.8l1.9,2.9
	c0.2,0.2,0.4,0.3,0.6,0.3h0.4l-0.1,0.5h-0.3c-0.4,0-0.8-0.1-1.1-0.5l-2-2.9l-1.6,1.3L122.1,52.9z"/>
<path class="st1" d="M135.4,49.4c0-1.5-1.1-2.7-2.7-2.7c-1.8,0-3.1,1.3-3.1,3.1c0,1.5,1.1,2.7,2.8,2.7
	C134.2,52.5,135.4,51.1,135.4,49.4 M128.9,49.8c0-2,1.7-3.6,3.8-3.6c1.9,0,3.4,1.5,3.4,3.2c0,2-1.6,3.6-3.7,3.6
	C130.4,53,128.9,51.5,128.9,49.8"/>
<path class="st1" d="M137.7,46.3h0.7l1.4,4.9c0.1,0.4,0.1,0.9,0.1,0.9c0,0,0.2-0.5,0.4-0.9l3.1-4.9h0.7l-4.4,6.7h-0.2L137.7,46.3z"
	/>
<path class="st1" d="M149.3,49.1c0-0.4,0.3-0.6,0.7-0.6c0.4,0,0.7,0.3,0.7,0.6c0,0.4-0.3,0.6-0.7,0.6
	C149.7,49.7,149.3,49.4,149.3,49.1"/>
<path class="st1" d="M160.7,47.8c2.5,0,3.8-1,3.8-2.9c0-1.5-1-2.4-3.1-2.4h-2l-1,5.3H160.7z M161.5,48.3c-0.3,0-0.5,0-0.8,0h-2.4
	l-0.9,4.6h-0.7l2.1-10.9h2.6c2.4,0,3.7,1,3.7,2.9c0,1.8-1.1,3-3,3.3l2.4,4.7h-0.8L161.5,48.3z"/>
<path class="st1" d="M172.4,49.2c0-1.4-0.8-2.5-2.5-2.5c-1.6,0-2.7,1.1-3,2.5H172.4z M166.9,49.8c0,1.5,1.1,2.7,2.7,2.7
	c1.1,0,1.9-0.4,2.5-1l0.4,0.4c-0.7,0.7-1.7,1.1-2.9,1.1c-1.9,0-3.4-1.3-3.4-3.2c0-2,1.7-3.6,3.7-3.6c2.1,0,3.3,1.5,3.1,3.6
	L166.9,49.8L166.9,49.8z"/>
<path class="st1" d="M181.6,49.3c0-1.5-0.9-2.6-2.4-2.6c-1.8,0-3.1,1.3-3.1,3.1c0,1.5,1,2.6,2.5,2.6
	C180.4,52.5,181.6,51.1,181.6,49.3 M175.7,50.7l-0.3,2.2h-0.7l2.2-11.6h0.7l-1.2,6.5c0.7-1,1.7-1.6,2.9-1.6c1.9,0,3.1,1.3,3.1,3.2
	c0,2.1-1.6,3.7-3.6,3.7C177.2,53,176,52.1,175.7,50.7"/>
<path class="st1" d="M185.3,43.5c0-0.3,0.3-0.5,0.6-0.5c0.3,0,0.6,0.2,0.6,0.5c0,0.3-0.3,0.5-0.6,0.5
	C185.6,44,185.3,43.8,185.3,43.5 M184.1,51.6l1-5.3h0.7l-1,5.5c-0.1,0.4,0,0.6,0.3,0.6h0.8l-0.1,0.5h-0.8
	C184.1,52.9,183.9,52.3,184.1,51.6"/>
<path class="st1" d="M188,51.6l2-10.4h0.7l-2,10.5c-0.1,0.4,0,0.6,0.3,0.6h0.8l-0.1,0.5h-0.9C188.1,52.9,187.8,52.3,188,51.6"/>
<path class="st1" d="M197.8,49.4c0-1.5-1-2.6-2.5-2.6c-1.8,0-3,1.4-3,3.2c0,1.5,0.9,2.6,2.4,2.6C196.5,52.5,197.8,51.2,197.8,49.4
	 M191.6,49.8c0-2.1,1.6-3.7,3.6-3.7c1.4,0,2.6,1,2.8,2.2l1.4-7.1h0.7l-2,10.5c-0.1,0.4,0,0.6,0.3,0.6h0.7l-0.1,0.5h-0.8
	c-0.8,0-1-0.5-0.8-1.3l0.1-0.3c-0.6,1-1.8,1.7-2.9,1.7C192.8,53,191.6,51.6,191.6,49.8"/>
<path class="st1" d="M210.4,46.8c1.8,0,2.7-1,2.7-2.5c0-1-0.6-1.8-2.1-1.8h-3l-0.8,4.3H210.4z M209.5,52.3c2.4,0,3.4-1.1,3.4-2.8
	c0-1.2-0.7-2.1-2.4-2.1H207l-0.9,5H209.5z M207.4,41.9h3.6c1.8,0,2.7,1.1,2.7,2.4c0,1.5-0.9,2.4-2.1,2.7c1.1,0.3,2,1.1,2,2.4
	c0,1.9-1.3,3.4-4,3.4h-4.4L207.4,41.9z"/>
<path class="st1" d="M221.4,49.4c0-1.5-1-2.6-2.5-2.6c-1.8,0-2.9,1.4-2.9,3.2c0,1.5,0.9,2.6,2.3,2.6C220,52.5,221.4,51.2,221.4,49.4
	 M215.4,49.8c0-2.1,1.6-3.7,3.5-3.7c1.4,0,2.5,1,2.8,2.3l0.3-2.2h0.6l-1,5.5c-0.1,0.4,0,0.6,0.3,0.6h0.7l-0.1,0.5h-0.8
	c-0.8,0-1-0.5-0.8-1.3l0.1-0.3c-0.6,1-1.7,1.7-2.8,1.7C216.6,53,215.4,51.7,215.4,49.8"/>
<path class="st1" d="M225.1,52.9h-0.7l2.2-11.6h0.7l-1.5,8.2c0,0.2-0.1,0.5-0.2,0.6l4.4-3.7h0.8l-3.3,2.8l1.9,2.9
	c0.2,0.2,0.4,0.3,0.6,0.3h0.4l-0.1,0.5h-0.3c-0.4,0-0.8-0.1-1.1-0.5l-2-2.9l-1.6,1.3L225.1,52.9z"/>
<path class="st1" d="M232.9,52.9h-0.7l2.2-11.6h0.7l-1.5,8.2c0,0.2-0.1,0.5-0.2,0.6l4.4-3.7h0.8l-3.3,2.8l1.9,2.9
	c0.2,0.2,0.4,0.3,0.6,0.3h0.4l-0.1,0.5h-0.3c-0.4,0-0.8-0.1-1.1-0.5l-2-2.9l-1.6,1.3L232.9,52.9z"/>
<path class="st1" d="M245.9,49.2c0-1.4-0.8-2.5-2.5-2.5c-1.6,0-2.7,1.1-3,2.5H245.9z M240.4,49.8c0,1.5,1.1,2.7,2.7,2.7
	c1.1,0,1.9-0.4,2.5-1l0.4,0.4c-0.7,0.7-1.7,1.1-2.9,1.1c-1.9,0-3.4-1.3-3.4-3.2c0-2,1.7-3.6,3.7-3.6c2.1,0,3.3,1.5,3.1,3.6
	L240.4,49.8L240.4,49.8z"/>
<path class="st1" d="M249.4,46.3h0.7l-0.4,1.5c0.4-0.9,1.2-1.6,2.2-1.6c0.3,0,0.6,0,0.8,0.2l-0.3,0.5c-0.2-0.1-0.4-0.1-0.6-0.1
	c-1.3,0-2.1,1-2.4,2.4l-0.7,3.7h-0.7L249.4,46.3z"/>
<path class="st1" d="M11.3,31.8l9.2-24.1l15.8,41.5h-7.2L11.3,31.8z M23.7,49.2h-19l5.1-13.5L23.7,49.2z M3.8,24.5V4h14L8.3,28.9
	L3.8,24.5z M3.8,40.7V29.8l3,2.9L3.8,40.7z M31.3,25.1L49,8.4v40.8h-8.6L31.3,25.1z M23.2,4h24.9L29.8,21.2L23.2,4z M0,53h52.8V0.2
	H0V53z"/>
<polygon class="st1" points="114.6,25 99.5,25 99.5,0.3 114.1,0.3 114.1,1.9 101.3,1.9 101.3,11.8 112.7,11.8 112.7,13.4 
	101.3,13.4 101.3,23.5 114.6,23.5 "/>
<path class="st1" d="M122.4,11.2h6.4c3.9,0,4.7-2.5,4.7-4.7c0-2.1-0.9-4.7-5.3-4.7h-5.8V11.2z M122.4,23.5h6.5c4,0,6-1.8,6-5.4
	c0-3.6-2.1-5.4-6.1-5.4h-6.4V23.5z M129,25h-8.4V0.3h7.6c4.3,0,6.9,2.3,6.9,6.2c0,2.7-1,4.4-3.2,5.3c2.9,0.8,4.5,2.9,4.5,6.3
	C136.6,22.6,133.9,25,129,25"/>
<rect x="143" y="0.3" class="st1" width="1.7" height="24.7"/>
<polygon class="st1" points="166.1,25 152.6,25 152.6,0.3 154.3,0.3 154.3,23.5 166.1,23.5 "/>
<path class="st1" d="M172.9,23.4h3.4c7.6,0,11.9-3.9,11.9-10.8c0-6.8-4.3-10.8-11.9-10.8h-3.4V23.4z M176.5,25h-5.3V0.3h5.3
	c8.5,0,13.5,4.6,13.5,12.4C190,20.4,185,25,176.5,25"/>
<path class="st1" d="M204.9,12.9h-4V3.7h4c3.3,0,5.2,1.4,5.2,4.6C210.1,11.4,208.2,12.9,204.9,12.9 M205,0.3h-7.9V25h3.8v-8.7h4.1
	c5.2,0,9-2.6,9-8C214,2.9,210.2,0.3,205,0.3"/>
<path class="st1" d="M229.2,21.9c-5.2,0-8.8-4-8.8-9.2s3.7-9.2,8.8-9.2c5.2,0,8.8,4,8.8,9.2S234.4,21.9,229.2,21.9 M229.2,0
	c-7.1,0-12.7,5.3-12.7,12.7s5.7,12.7,12.7,12.7c7,0,12.7-5.3,12.7-12.7S236.3,0,229.2,0"/>
<polygon class="st1" points="265.3,3.7 272.6,3.7 272.6,25 276.4,25 276.4,3.7 283.8,3.7 283.8,0.3 265.3,0.3 "/>
<polygon class="st1" points="291.7,14.3 302.2,14.3 302.2,11 291.7,11 291.7,3.7 303.6,3.7 303.6,0.3 287.9,0.3 287.9,25 304.1,25 
	304.1,21.6 291.7,21.6 "/>
<polygon class="st1" points="324.4,0.3 324.4,16.9 309,0.1 308.3,0.1 308.3,0.1 308.3,25 311.8,25 311.9,8.5 327.3,25.3 328,25.3 
	328,0.3 "/>
<path class="st1" d="M249.5,3.7h4.3c3.2,0,5.2,1.3,5.2,4.5c0,1.8-0.6,2.8-2.1,4l-7.3,5.7V3.7z M259.3,25h4.4l-5.6-9.4
	c0,0,0.5-0.3,2.1-1.6c1.7-1.4,2.7-3.2,2.7-5.9c0-5.5-3.9-7.8-9-7.8h-8.3V25h3.8v-2.8l5.7-4.4L259.3,25z"/>
<path class="st1" d="M79,1.9h4.8c4.6,0,7,1.9,7,5.8c0,2.2-0.7,3.3-2,4.4L79,20.1V1.9z M87.7,15.1l2.5-2.1c1.7-1.5,2.4-3.1,2.4-5.4
	c0-4.6-3.1-7.3-8.6-7.3h-6.7V25H79v-2.8l7.3-6l5.1,8.8h2.1L87.7,15.1z"/>
</svg>
