<?xml version="1.0" encoding="utf-8"?>
<!-- Generator: Adobe Illustrator 20.1.0, SVG Export Plug-In . SVG Version: 6.00 Build 0)  -->
<svg version="1.1" id="Layer_1" xmlns="http://www.w3.org/2000/svg" xmlns:xlink="http://www.w3.org/1999/xlink" x="0px" y="0px"
	 viewBox="0 0 58.5 23.9" style="enable-background:new 0 0 58.5 23.9;" xml:space="preserve">
<style type="text/css">
	.st0{fill:#FFFFFF;}
</style>
<g>
	<path class="st0" d="M25.7,7.4l2.2-5.6l3.7,9.7H30L25.7,7.4z M28.6,11.4h-4.4l1.2-3.1L28.6,11.4z M24,5.7V0.9h3.2L25,6.7L24,5.7z
		 M24,9.4V6.9l0.7,0.7L24,9.4z M30.4,5.8l4.1-3.9v9.5h-2L30.4,5.8z M28.5,0.9h5.8l-4.3,4L28.5,0.9z M23.1,12.3h12.3V0H23.1V12.3z"/>
	<polygon class="st0" points="8.7,23.8 5.2,23.8 5.2,18.1 8.6,18.1 8.6,18.5 5.6,18.5 5.6,20.8 8.3,20.8 8.3,21.1 5.6,21.1 
		5.6,23.5 8.7,23.5 	"/>
	<path class="st0" d="M10.6,20.7H12c0.9,0,1.1-0.6,1.1-1.1c0-0.5-0.2-1.1-1.2-1.1h-1.4V20.7z M10.6,23.5h1.5c0.9,0,1.4-0.4,1.4-1.2
		c0-0.8-0.5-1.2-1.4-1.2h-1.5L10.6,23.5L10.6,23.5z M12.1,23.8h-1.9v-5.8h1.8c1,0,1.6,0.5,1.6,1.5c0,0.6-0.2,1-0.7,1.2
		c0.7,0.2,1.1,0.7,1.1,1.5C13.9,23.3,13.2,23.8,12.1,23.8"/>
	<rect x="15.3" y="18.1" class="st0" width="0.4" height="5.8"/>
	<polygon class="st0" points="20.7,23.8 17.6,23.8 17.6,18.1 18,18.1 18,23.5 20.7,23.5 	"/>
	<path class="st0" d="M22.3,23.5h0.8c1.8,0,2.8-0.9,2.8-2.5c0-1.6-1-2.5-2.8-2.5h-0.8V23.5z M23.2,23.8H22v-5.8h1.2
		c1.9,0,3.1,1.1,3.1,2.9C26.3,22.8,25.1,23.8,23.2,23.8"/>
	<path class="st0" d="M29.8,21h-0.9v-2.1h0.9c0.8,0,1.2,0.4,1.2,1.1C31,20.7,30.6,21,29.8,21 M29.9,18.1H28v5.8h0.9v-2.1h0.9
		c1.2,0,2.1-0.6,2.1-1.9C31.9,18.7,31,18.1,29.9,18.1"/>
	<path class="st0" d="M35.5,23.1c-1.2,0-2.1-0.9-2.1-2.1c0-1.2,0.9-2.1,2.1-2.1c1.2,0,2.1,0.9,2.1,2.1
		C37.5,22.2,36.7,23.1,35.5,23.1 M35.5,18c-1.7,0-3,1.2-3,3s1.3,3,3,3c1.7,0,3-1.2,3-3S37.1,18,35.5,18"/>
	<polygon class="st0" points="43.9,18.9 45.6,18.9 45.6,23.8 46.5,23.8 46.5,18.9 48.2,18.9 48.2,18.1 43.9,18.1 	"/>
	<polygon class="st0" points="50.1,21.4 52.5,21.4 52.5,20.6 50.1,20.6 50.1,18.9 52.8,18.9 52.8,18.1 49.2,18.1 49.2,23.8 
		52.9,23.8 52.9,23.1 50.1,23.1 	"/>
	<polygon class="st0" points="57.7,18.1 57.7,22 54.1,18.1 53.9,18.1 53.9,18.1 53.9,23.8 54.8,23.8 54.8,20 58.4,23.9 58.5,23.9 
		58.5,18.1 	"/>
	<path class="st0" d="M40.2,18.9h1c0.8,0,1.2,0.3,1.2,1.1c0,0.4-0.1,0.6-0.5,0.9l-1.7,1.3C40.2,22.2,40.2,18.9,40.2,18.9z
		 M42.5,23.8h1l-1.3-2.2c0,0,0.1-0.1,0.5-0.4c0.4-0.4,0.6-0.8,0.6-1.4c0-1.3-0.9-1.8-2.1-1.8h-1.9v5.8h0.9v-0.6l1.3-1L42.5,23.8z"/>
	<path class="st0" d="M0.4,18.5h1.1c1.1,0,1.7,0.5,1.7,1.4c0,0.5-0.2,0.8-0.5,1l-2.3,1.9C0.4,22.7,0.4,18.5,0.4,18.5z M2.4,21.5
		L3,21.1c0.4-0.4,0.5-0.7,0.5-1.2c0-1.1-0.7-1.7-2-1.7H0v5.8h0.4v-0.6l1.7-1.4l1.2,2.1h0.5L2.4,21.5z"/>
</g>
</svg>
