<?xml version="1.0" standalone="no"?>
<!DOCTYPE svg PUBLIC "-//W3C//DTD SVG 1.1//EN" "http://www.w3.org/Graphics/SVG/1.1/DTD/svg11.dtd" >
<svg xmlns="http://www.w3.org/2000/svg">
<metadata>Generated by IcoMoon</metadata>
<defs>
<font id="Rebild" horiz-adv-x="512">
<font-face units-per-em="512" ascent="480" descent="-32" />
<missing-glyph horiz-adv-x="512" />
<glyph unicode="&#x20;" d="" horiz-adv-x="256" />
<glyph unicode="&#xe000;" d="M256 480l-117.76-186.88h235.495l-117.735 186.88zM256.025-32l117.735 186.88-235.52 0.025 117.785-186.905z" />
<glyph unicode="&#xe001;" d="M219.213 364.391c10.701-10.445 115.251-120.217 115.251-120.217 5.735-5.583 8.576-12.879 8.576-20.174s-2.841-14.592-8.576-20.173c0 0-104.551-109.773-115.251-120.192-10.701-10.445-29.927-11.161-41.369 0-11.417 11.136-12.313 26.675 0 40.32l95.948 100.045-95.923 100.045c-12.313 13.671-11.417 29.209 0 40.345 11.418 11.138 30.668 10.446 41.344 0.002z" />
<glyph unicode="&#xe002;" d="M396.365 187.213c-10.419 10.701-120.192 115.251-120.192 115.251-5.581 5.709-12.877 8.576-20.173 8.576-7.321 0-14.617-2.867-20.173-8.576 0 0-109.773-104.551-120.217-115.251-10.419-10.701-11.136-29.952 0-41.369 11.161-11.392 26.701-12.313 40.345 0l100.045 95.923 100.019-95.923c13.671-12.313 29.235-11.392 40.345 0 11.163 11.443 10.471 30.693 0.001 41.369z" />
<glyph unicode="&#xe003;" d="M396.365 260.787c-10.419-10.701-120.192-115.277-120.192-115.277-5.581-5.709-12.877-8.55-20.173-8.55-7.321 0-14.617 2.841-20.173 8.551 0 0-109.773 104.576-120.217 115.277-10.419 10.701-11.136 29.927 0 41.369 11.161 11.417 26.701 12.313 40.345 0l100.045-95.949 100.019 95.923c13.671 12.313 29.235 11.417 40.345 0 11.163-11.418 10.471-30.668 0.001-41.344z" />
<glyph unicode="&#xe004;" d="M292.787 364.391c-10.701-10.445-115.251-120.217-115.251-120.217-5.709-5.583-8.551-12.879-8.551-20.174s2.841-14.592 8.551-20.173c0 0 104.551-109.773 115.251-120.192 10.701-10.445 29.952-11.161 41.369 0 11.392 11.136 12.288 26.675-0.025 40.32l-95.923 100.045 95.923 100.045c12.313 13.671 11.417 29.209 0.025 40.345-11.443 11.138-30.693 10.446-41.369 0.002z" />
<glyph unicode="&#xe005;" d="M512 184.779l-256 198.713-256-198.714v81.019l256 198.714 256-198.714zM448 192v-192h-128v128h-128v-128h-128v192l192 144z" />
<glyph unicode="&#xe006;" d="M143.352 34.099c-6.861-6.937-6.861-18.125 0-25.063s17.945-6.937 24.807 0l200.448 202.419c6.861 6.937 6.861 18.151 0 25.063l-200.448 202.445c-6.861 6.937-17.945 6.937-24.807 0s-6.861-18.125 0-25.063l182.784-189.9-182.784-189.901z" />
<glyph unicode="&#xe007;" d="M137.903 388.881l0.133-5.937c0 0 8.488 0.618 15.849 7.976 1.883 1.827 4.881 5.986 6.47 9.998 2.458 6.164 0.887 9.887 0.016 11.391l-22.469-23.429zM137.879 391.89l22.075 21.767c0.119 1.538 1.556 4.559 0.485 7.341-0.903 2.341-2.023 3.042-3.048 4.207l-19.673-20.566 0.161-12.75zM137.684 407.637l19.121 18.692c-0.245 1.351 0.535 3.594-1.488 5.986-1.583 1.855-2.607 1.921-3.589 2.619l-14.195-15.75 0.151-11.547zM136.089 450.829c0 0-0.050-0.903-1.415-2.831-1.159-1.504-3.667-4.196-4.916-5.105-6.135-4.508-11.192-10.127-14.044-17.655-5.401-14.435-3.367-24.406 2.909-32.871 7.34-9.932 15.766-9.423 16.479-9.423l1.176 67.886-0.19 0.002zM137.494 422.196l13.499 13.582c-0.836 1.366-1.053 4.013-2.715 5.51-0.965 0.847-1.917 1.271-3.003 1.671l-7.915-8.789 0.135-11.975zM144.298 443.469c-1.321 0.663-3.304 2.107-4.698 3.729-1.355 1.522-2.319 3.633-2.319 3.633h-0.123l0.173-13.766 6.966 6.404zM376.905 388.881l0.134-5.937c0 0 8.488 0.618 15.849 7.976 1.884 1.827 4.882 5.986 6.471 9.998 2.457 6.164 0.887 9.887 0.016 11.391l-22.469-23.429zM376.882 391.89l22.076 21.767c0.118 1.538 1.555 4.559 0.483 7.341-0.902 2.341-2.022 3.042-3.048 4.207l-19.675-20.566 0.163-12.75zM376.687 407.637l19.123 18.692c-0.245 1.351 0.534 3.594-1.49 5.986-1.582 1.855-2.606 1.921-3.589 2.619l-14.196-15.75 0.152-11.547zM375.093 450.829c0 0-0.049-0.903-1.415-2.831-1.159-1.504-3.666-4.196-4.914-5.105-6.135-4.508-11.19-10.127-14.044-17.655-5.399-14.435-3.366-24.406 2.911-32.871 7.339-9.932 15.765-9.423 16.477-9.423l1.178 67.886-0.191 0.002zM376.498 422.196l13.498 13.582c-0.836 1.366-1.055 4.013-2.715 5.51-0.964 0.847-1.916 1.271-3.001 1.671l-7.915-8.789 0.133-11.975zM383.301 443.469c-1.32 0.663-3.305 2.107-4.696 3.729-1.356 1.522-2.319 3.633-2.319 3.633h-0.123l0.173-13.766 6.965 6.404zM160.606 356.652l-4.102-4.274c0 0 6.443-5.561 16.853-5.561 2.647-0.027 7.697 0.768 11.643 2.497 6.113 2.625 7.635 6.364 8.090 8.041l-32.483-0.702zM162.713 358.822l31.013-0.229c1.183 0.992 4.324 2.108 5.546 4.816 1.008 2.351 0.707 3.611 0.808 5.178l-28.462-0.639-8.905-9.125zM173.731 370.097l26.735-0.322c0.802 1.148 2.921 2.185 3.171 5.283 0.2 2.452-0.469 3.221-0.663 4.368l-21.183-1.082-8.060-8.247zM203.151 401.787c0 0-0.679-0.602-3.003-1.031-1.877-0.241-5.572-0.363-7.089-0.134-7.523 1.165-15.081 0.762-22.409-2.558-14.044-6.37-19.645-14.863-21.21-25.28-1.828-12.227 4.498-17.833 4.999-18.34l48.832 47.209-0.12 0.133zM183.874 380.531l19.161 0.061c0.374 1.538 2.095 3.571 1.975 5.802-0.095 1.282-0.469 2.257-0.938 3.31l-11.814-0.623-8.384-8.55zM203.736 390.753c-0.451 1.394-0.831 3.819-0.702 5.953 0.135 2.046 0.968 4.234 0.968 4.234l-0.095 0.085-9.62-9.87 9.45-0.401zM114.404 358.555l4.278-4.113c0 0 5.567 6.447 5.567 16.853 0.033 2.647-0.78 7.675-2.469 11.642-2.641 6.113-6.393 7.646-8.063 8.101l0.688-32.484zM112.248 360.663l0.207 31.003c-0.975 1.181-2.090 4.312-4.821 5.545-2.317 1.030-3.594 0.719-5.144 0.83l0.647-28.469 9.111-8.909zM100.968 371.658l0.319 26.729c-1.142 0.825-2.163 2.938-5.284 3.189-2.441 0.213-3.215-0.451-4.385-0.652l1.087-21.193 8.264-8.072zM69.284 401.118c0 0 0.629-0.696 1.020-3.037 0.263-1.871 0.368-5.567 0.133-7.088-1.153-7.523-0.752-15.081 2.57-22.404 6.359-14.038 14.852-19.634 25.28-21.205 12.227-1.827 17.828 4.492 18.341 4.993l-47.211 48.848-0.133-0.107zM90.546 381.835l-0.050 19.155c-1.556 0.362-3.589 2.091-5.817 1.967-1.266-0.095-2.257-0.469-3.304-0.936l0.618-11.832 8.555-8.353zM80.319 401.688c-1.394-0.464-3.829-0.831-5.959-0.697-2.034 0.151-4.224 0.954-4.224 0.954l-0.083-0.089 9.865-9.625 0.401 9.457zM106.096 321.74l5.925 0.135c0 0-0.606 8.499-7.981 15.877-1.855 1.883-5.987 4.887-9.993 6.465-6.169 2.463-9.905 0.898-11.419 0.027l23.468-22.505zM103.058 321.735l-21.751 22.105c-1.544 0.105-4.564 1.544-7.34 0.501-2.363-0.936-3.048-2.068-4.229-3.099l20.611-19.638 12.71 0.132zM87.309 321.534l-18.675 19.131c-1.36-0.241-3.611 0.531-5.969-1.489-1.889-1.594-1.956-2.607-2.659-3.587l15.766-14.185 11.537 0.13zM44.105 319.93c0 0 0.913-0.029 2.86-1.393 1.498-1.143 4.19-3.689 5.1-4.91 4.508-6.135 10.132-11.185 17.639-14.057 14.441-5.405 24.427-3.365 32.886 2.91 9.932 7.336 9.429 15.777 9.429 16.484l-67.913 1.165-0.001-0.199zM72.763 321.346l-13.583 13.503c-1.365-0.83-4.024-1.042-5.511-2.691-0.842-0.981-1.26-1.929-1.688-3.009l8.794-7.925 11.987 0.122zM51.507 328.16c-0.68-1.298-2.135-3.31-3.728-4.72-1.538-1.339-3.672-2.295-3.672-2.295v-0.123l13.806 0.179-6.405 6.959zM167.042 318.994l-5.935-0.135c0 0 0.601-8.487 7.976-15.849 1.871-1.889 5.997-4.858 10.009-6.465 6.169-2.447 9.871-0.893 11.403-0.039l-23.452 22.488zM170.065 319.016l21.769-22.071c1.527-0.123 4.552-1.555 7.346-0.501 2.351 0.913 3.037 2.034 4.213 3.059l-20.597 19.661-12.731-0.148zM185.829 319.231l18.659-19.131c1.389 0.234 3.6-0.535 5.975 1.489 1.871 1.577 1.966 2.596 2.642 3.582l-15.766 14.167-11.511-0.107zM229.004 320.803c0 0-0.892 0.063-2.827 1.406-1.522 1.165-4.184 3.707-5.117 4.933-4.501 6.13-10.132 11.185-17.655 14.027-14.446 5.433-24.383 3.382-32.855-2.881-9.965-7.336-9.447-15.783-9.447-16.514l67.896-1.136 0.005 0.165zM200.381 319.416l13.578-13.526c1.339 0.847 4.013 1.047 5.494 2.737 0.841 0.942 1.27 1.922 1.677 2.993l-8.794 7.909-11.954-0.112zM221.644 312.611c0.656 1.298 2.095 3.293 3.718 4.698 1.556 1.327 3.643 2.307 3.643 2.307v0.112l-13.777-0.191 6.416-6.926zM398.183 355.245l-4.091-4.274c0 0 6.42-5.523 16.813-5.523 2.63-0.033 7.659 0.769 11.587 2.469 6.076 2.614 7.598 6.353 8.064 8.026l-32.372-0.699zM400.307 357.391l30.868-0.213c1.165 0.981 4.312 2.113 5.55 4.821 0.998 2.313 0.697 3.584 0.786 5.144l-28.356-0.663-8.848-9.089zM411.257 368.654l26.623-0.333c0.804 1.13 2.926 2.169 3.187 5.268 0.202 2.43-0.478 3.21-0.668 4.38l-21.099-1.103-8.044-8.212zM440.571 400.215c0 0-0.673-0.623-2.993-1.026-1.877-0.245-5.555-0.346-7.060-0.123-7.507 1.148-15.031 0.746-22.337-2.558-13.977-6.353-19.563-14.798-21.111-25.186-1.837-12.183 4.447-17.777 4.978-18.281l48.642 47.038-0.119 0.135zM421.389 379.021l19.075 0.050c0.352 1.561 2.091 3.589 1.957 5.801-0.101 1.271-0.463 2.255-0.932 3.327l-11.759-0.647-8.341-8.532zM441.152 389.214c-0.447 1.405-0.836 3.811-0.687 5.924 0.125 2.046 0.954 4.213 0.954 4.213l-0.101 0.101-9.575-9.837 9.408-0.401zM353.442 358.555l4.277-4.113c0 0 5.572 6.447 5.572 16.853 0.029 2.647-0.757 7.675-2.49 11.642-2.625 6.113-6.359 7.646-8.058 8.101l0.699-32.484zM351.284 360.663l0.207 31.003c-0.974 1.181-2.089 4.312-4.821 5.545-2.308 1.030-3.606 0.719-5.144 0.83l0.636-28.469 9.122-8.909zM340 371.658l0.334 26.729c-1.154 0.825-2.185 2.938-5.283 3.189-2.454 0.213-3.211-0.451-4.397-0.652l1.109-21.193 8.237-8.072zM308.34 401.118c0 0 0.611-0.696 1.013-3.037 0.251-1.871 0.357-5.567 0.151-7.088-1.165-7.523-0.771-15.081 2.529-22.404 6.37-14.038 14.876-19.634 25.298-21.205 12.215-1.827 17.815 4.492 18.337 4.993l-47.2 48.848-0.127-0.107zM329.588 381.835l-0.067 19.155c-1.556 0.362-3.565 2.091-5.809 1.967-1.271-0.095-2.265-0.469-3.305-0.936l0.601-11.832 8.579-8.353zM319.357 401.688c-1.377-0.464-3.834-0.831-5.953-0.697-2.046 0.151-4.214 0.954-4.214 0.954l-0.088-0.089 9.865-9.625 0.389 9.457zM345.121 321.74l5.937 0.135c0 0-0.618 8.499-7.976 15.877-1.861 1.883-5.993 4.887-10.004 6.465-6.163 2.463-9.908 0.898-11.413 0.027l23.457-22.505zM342.106 321.735l-21.769 22.105c-1.504 0.105-4.546 1.544-7.349 0.501-2.348-0.936-3.032-2.068-4.202-3.099l20.582-19.638 12.74 0.132zM326.355 321.534l-18.668 19.131c-1.394-0.241-3.599 0.531-5.986-1.489-1.861-1.594-1.945-2.607-2.63-3.587l15.739-14.185 11.545 0.13zM283.143 319.93c0 0 0.919-0.029 2.843-1.393 1.498-1.143 4.207-3.689 5.111-4.91 4.502-6.135 10.13-11.185 17.655-14.057 14.419-5.405 24.399-3.365 32.876 2.91 9.949 7.336 9.429 15.777 9.429 16.484l-67.913 1.165-0.001-0.199zM311.783 321.346l-13.567 13.503c-1.354-0.83-4.013-1.042-5.495-2.691-0.837-0.981-1.277-1.929-1.688-3.009l8.805-7.925 11.944 0.122zM290.531 328.16c-0.651-1.298-2.123-3.31-3.728-4.72-1.54-1.339-3.661-2.295-3.661-2.295v-0.123l13.793 0.179-6.404 6.959zM404.591 317.727l-5.907-0.133c0 0 0.616-8.459 7.942-15.787 1.861-1.9 5.969-4.86 9.966-6.447 6.14-2.442 9.881-0.903 11.373-0.035l-23.373 22.403zM407.618 317.755l21.679-21.999c1.527-0.117 4.536-1.544 7.307-0.501 2.355 0.903 3.043 2.041 4.202 3.054l-20.504 19.601-12.684-0.155zM423.3 317.966l18.603-19.065c1.373 0.229 3.611-0.535 5.954 1.471 1.889 1.572 1.939 2.601 2.63 3.57l-15.689 14.153-11.498-0.13zM466.347 319.527c0 0-0.899 0.045-2.828 1.41-1.504 1.137-4.196 3.673-5.1 4.909-4.492 6.108-10.099 11.145-17.601 13.977-14.351 5.394-24.31 3.365-32.738-2.871-9.903-7.323-9.399-15.733-9.399-16.451l67.663-1.165 0.002 0.19zM437.809 318.156l13.527-13.477c1.358 0.841 3.995 1.043 5.481 2.715 0.853 0.965 1.271 1.905 1.672 2.977l-8.743 7.891-11.938-0.106zM458.992 311.369c0.651 1.288 2.089 3.277 3.711 4.664 1.54 1.354 3.646 2.324 3.646 2.324v0.105l-13.723-0.173 6.366-6.92zM156.504 352.376l-2.066 2.067-15.707-14.713v-6.327zM118.686 354.443l-2.057-2.067 17.762-18.972v6.321zM112.020 321.874v-2.91l21.511-0.702v4.322zM161.108 318.87v2.904l-21.506 0.731v-4.337zM138.035 383.033h-2.933l-11.145-172.477 12.039-2.591 13.157 2.591zM377.067 383.033h-2.926l-11.147-172.477 12.015-2.591 13.191 2.591zM394.091 350.972l-2.044 2.071-15.66-14.656v-6.319zM357.721 354.443l-2.055-2.067 17.772-18.972v6.321zM351.056 321.874v-2.91l21.519-0.702v4.322zM398.684 317.621v2.883l-21.445 0.719v-4.313zM489.103 470.96c-42.033 5.519-137.493 8.259-232.994 8.259-63.566 0-127.084-1.231-174.774-3.695-23.853-1.212-43.704-2.726-57.699-4.564-14.027-2.516-21.919-2.491-23.636-8.511 0.251-323.854 114.188-493.472 256.407-493.673 142.198 0.202 256.119 169.819 256.392 493.673-1.711 6.020-9.653 5.953-23.697 8.51zM163.341 89.034h-0.011v0.007h0.011v-0.007zM205.603 90.824l-10.477-0.129-15.577 13.582 0.563 0.965c0.357 0.707 0.768 1.51 2.017 2.563 1.379 1.181 2.681 1.343 3.887 1.343l1.131-0.016 0.429 0.163 18.028-18.471zM188.607 170.107l0.016 0.019 0.011-0.013-0.016-0.016-0.011 0.010zM235.53 121.526c-1.31-1.409-6.893-6.522-17.972-4.815-11.48 1.688-19.195 8.146-24.996 20.942-2.975 6.553-3.801 13.815-2.518 22.192 0.24 1.556 0.123 5.322-0.145 7.216-0.112 0.629-0.235 1.143-0.357 1.562l45.988-47.097zM200.743 170.575c1.093 0.496 2.006 0.825 3.394 0.911 1.233 0 2.441-0.607 3.512-1.143 0.695-0.345 1.36-0.673 1.655-0.435l0.067-18.252-7.797 7.478-0.832 11.442zM210.881 169.439l1.064 0.285c0.647 0.213 1.316 0.429 2.463 0.429l0.768-0.033c2.169-0.179 3.261-1.316 4.137-2.231l0.791-0.569-0.323-25.858-7.461 7.203-1.439 20.773zM222.089 166.529c1.399-0.033 2.559 0.129 4.597-0.757 1.868-0.824 2.931-2.625 3.784-4.069 0.329-0.558 0.623-1.047 0.815-1.13l-0.224-30.095-8.319 8.014-0.653 28.038zM233.335 159.412c2.231-0.769 5.14-2.748 7.284-7.714 1.631-3.757 2.486-8.717 2.458-11.48 0-8.885-4.143-14.881-5.21-16.285l-3.863 3.534-0.669 31.945zM202.505 113.071c2.838 1.394 6.548 1.305 10.607-0.301 3.768-1.505 7.898-4.42 9.87-6.404 6.889-6.882 7.791-14.881 8.192-15.179l-5.723-0.129-22.946 22.014zM221.348 91.024l-11.659-0.147-20.181 19.289 0.457 0.429c0.824 0.803 1.599 1.562 3.333 2.252 1.667 0.629 3.946 0.213 5.546-0.191 0.633-0.163 1.186-0.296 1.393-0.217l21.111-21.415zM198.781 162.020l-8.264 8.043c0.824-0.229 1.939-0.485 3.021-0.546 1.827-0.151 3.968 0.106 5.572 0.546l-0.329-8.043zM191.109 167.555l-1.862 1.9-0.029 0.050 1.891-1.95zM191.035 90.623l-10.901-0.106-8.571 7.378c0.384 0.992 0.797 1.967 1.607 2.921 0.892 0.974 2.262 1.421 3.473 1.815 0.73 0.237 1.415 0.464 1.47 0.837l12.923-12.846zM176.218 90.484l-11.481-0.151c0.741 0.424 1.688 1.026 2.497 1.75 1.494 1.293 2.815 3.041 3.555 4.317l5.429-5.917zM221.571 71.697c-9.373-6.95-19.365-7.764-32.518-2.828-6.732 2.514-12.447 7.056-17.465 13.877-0.915 1.265-3.583 3.767-5.199 5.005-0.547 0.385-1.008 0.663-1.406 0.876l65.859-0.858c0.047-2.729-0.761-9.775-9.27-16.072zM279.909 87.726l-18.201-0.887 7.64-115.464-13.409-0.981-13.415 0.569 0.022 0.389h-0.005l0.223 3.466 6.978 112.053-18.525 0.618-0.046 0.389-0.045 0.391-0.285 2.486-0.006 0.027v0.011l0.391 0.023 0.389 0.016 18.43 0.93 0.803 12.908-15.293 16.352 0.245 0.307 0.245 0.313 1.339 1.684 0.24 0.307 0.005 0.005 0.583-0.526 13.052-11.825 2.636 42.377 0.029 0.394v0.005l-0.011-0.011v0.39c-2.692 0-9.614 0.909-15.777 9.307-6.91 9.303-7.786 19.322-2.843 32.486 2.57 6.798 7.116 12.513 13.91 17.467 1.316 1.013 3.851 3.717 5.005 5.233l0.841 1.332-0.841-65.819-0.269-0.361 0.373 0.045 0.391 0.039 2.504 0.28h0.029l0.022-0.384 0.029-0.391 2.822-42.611 13.267 12.586 0.615-0.491 1.956-1.573 0.023-0.016 0.005-0.005-0.257-0.285-0.269-0.291-14.909-16.401 0.875-13.231 18.904-0.264 0.045-0.391 0.045-0.389 0.279-2.514 0.005-0.027v-0.011l-0.385-0.016-0.404-0.024zM255.46 221.983v0.005h0.005v-0.005h-0.005zM318.893 137.091l-0.013-0.714c-0.005-1.136-0.016-2.214-0.751-3.873-0.84-1.865-2.708-2.983-4.075-3.795l-1.255-0.808-29.955 0.213 7.986 8.349 28.063 0.628zM293.82 139.42l7.188 7.457 20.771 1.433 0.285-1.064c0.241-0.752 0.519-1.606 0.381-3.256-0.167-2.158-1.298-3.238-2.207-4.109l-0.768-0.798-25.649 0.337zM311.769 125.839c-0.663-1.932-2.517-5.048-7.713-7.289-3.695-1.583-8.679-2.435-11.491-2.435-9.693 0-15.968 4.943-16.546 4.943l-0.013-0.005 3.808 4.113 31.954 0.673zM289.979 106.885c5.423 4.002 11.118 5.947 17.405 5.947 4.62 0 9.557-1.008 15.091-3.087 6.788-2.58 12.507-7.145 17.476-13.954 0.998-1.276 3.735-3.846 5.213-4.978 0.529-0.373 0.986-0.658 1.372-0.858l-65.847 0.858c-0.050 2.741 0.755 9.795 9.291 16.070zM322.678 151.526c-0.341-0.685-0.668-1.327-0.43-1.621l-18.237-0.062 7.468 7.726 11.447 0.885c0.44-1.024 0.808-1.972 0.885-3.182 0.087-1.322-0.558-2.61-1.134-3.747zM322.411 160.075l-8.026 0.315 8.026 8.259c-0.229-0.82-0.472-1.918-0.552-2.993-0.122-2.017 0.179-4.181 0.552-5.58zM273.64 123.911c-2.038 2.062-6.123 7.579-4.613 17.716 1.744 11.491 8.221 19.205 20.998 25 4.627 2.091 9.485 3.099 14.87 3.099 2.323 0 4.784-0.197 7.313-0.585 1.556-0.245 5.283-0.117 7.201 0.134 0.618 0.105 1.127 0.229 1.533 0.351l-47.301-45.715zM279.185 172.195c-1.5-3.795-4.408-7.925-6.381-9.887-6.253-6.253-13.454-7.574-15.209-7.813l-0.217 5.228 22.113 23.089c0.901-1.837 1.795-5.361-0.307-10.618zM279.107 186.502c-0.167-0.656-0.307-1.226-0.223-1.432l-21.433-21.133-0.241 11.558 19.372 20.286 0.485-0.501c0.803-0.815 1.562-1.583 2.217-3.288 0.721-1.893 0.219-3.889-0.177-5.49zM257.233 179.681l-0.208 10.366 13.677 15.709 0.954-0.552c0.707-0.355 1.504-0.768 2.563-2.005 1.394-1.671 1.372-3.245 1.354-4.508l0.168-0.965-18.508-18.046zM257.065 194.267l-0.2 10.779 7.484 8.672c0.962-0.363 1.911-0.753 2.875-1.583 0.965-0.875 1.423-2.231 1.822-3.423 0.247-0.747 0.486-1.454 0.882-1.516l-12.863-12.93zM256.915 209.085l-0.151 11.497c0.417-0.747 1.013-1.705 1.727-2.514 1.349-1.532 3.088-2.837 4.335-3.549l-5.911-5.435zM304.538 64.514h-0.005c-1.877 0-3.923 0.43-6.070 1.276-3.761 1.5-7.909 4.413-9.903 6.399-6.894 6.915-7.803 14.902-8.202 15.185l5.611 0.241 23.084-22.103c-0.993-0.502-2.483-0.998-4.514-0.998zM321.563 67.974c-0.818-0.818-1.594-1.589-3.321-2.273-1.655-0.63-3.947-0.195-5.545 0.201l-1.231 0.245-0.158-0.022-21.122 21.428 11.547 0.245 20.285-19.372-0.456-0.454zM331.427 73.312c-0.355-0.707-0.768-1.504-1.988-2.546-1.389-1.172-2.687-1.333-3.88-1.333l-1.172 0.022-0.557-0.022-17.9 18.313 10.372 0.217 15.687-13.682-0.562-0.971zM338.349 77.765c-0.853-0.965-2.207-1.409-3.399-1.805-0.63-0.207-1.226-0.408-1.721-0.663l-12.719 12.629 10.774 0.224 8.706-7.484c-0.444-1.088-0.849-1.984-1.641-2.9zM344.308 86.495c-1.501-1.317-2.822-3.059-3.555-4.33l-5.429 5.913 11.514 0.157c-0.755-0.42-1.711-1.023-2.531-1.74zM492.894 271.391c-57.865-0.496-57.905-60.702-117.007-60.702-59.627 0-59.827 60.724-119.477 60.724-59.355 0-59.505-60.724-119.477-60.724-59.933 0-60.195 60.211-117.023 60.702-10.146 55.883-15.726 119.489-15.735 190.793 2.575 3.11 36.002 7.49 81.897 9.412 47.016 2.332 108.508 3.437 170.037 3.437 63.577 0 127.2-1.213 174.912-3.637 23.842-1.229 43.691-2.783 57.498-4.606 6.923-0.903 12.375-1.889 15.889-2.901 1.773-0.493 3.065-1.010 3.767-1.438l0.469-0.328c-0.027-71.277-5.611-134.865-15.752-190.731zM163.331 89.040h0.011v-0.007h-0.011z" horiz-adv-x="513" />
<glyph unicode="&#xe008;" d="M507.331 68.67c-0.002 0.002-0.005 0.005-0.005 0.005l-155.322 155.326 155.322 155.325c0.002 0.002 0.005 0.003 0.005 0.005 1.672 1.673 2.881 3.627 3.656 5.709 2.123 5.688 0.912 12.341-3.661 16.915l-73.374 73.372c-4.574 4.573-11.225 5.783-16.914 3.661-2.080-0.775-4.035-1.984-5.709-3.655 0-0.002-0.002-0.003-0.005-0.005l-155.323-155.327-155.324 155.325c-0.002 0.002-0.003 0.003-0.005 0.005-1.673 1.671-3.627 2.88-5.707 3.655-5.691 2.125-12.341 0.913-16.915-3.661l-73.374-73.373c-4.574-4.573-5.784-11.226-3.661-16.914 0.776-2.080 1.985-4.035 3.656-5.709 0.003-0.001 0.003-0.003 0.005-0.005l155.325-155.323-155.326-155.325c-0.001-0.002-0.003-0.003-0.005-0.005-1.671-1.673-2.88-3.627-3.657-5.707-2.125-5.688-0.913-12.341 3.661-16.915l73.374-73.373c4.575-4.574 11.227-5.784 16.915-3.661 2.080 0.776 4.035 1.985 5.709 3.656 0.001 0.002 0.003 0.003 0.005 0.005l155.325 155.325 155.325-155.325c0.002-0.001 0.005-0.003 0.005-0.005 1.675-1.672 3.627-2.881 5.707-3.657 5.689-2.123 12.341-0.913 16.914 3.661l73.373 73.374c4.574 4.574 5.785 11.227 3.661 16.915-0.777 2.081-1.985 4.034-3.657 5.707z" />
<glyph unicode="&#xe009;" d="M57.023 57.047h15.907l-38.471-42.382 48.065-46.914-17.411-0.001-45.431 44.067v-44.067h-12.888v89.295h12.886v-40.916l37.343 40.918zM205.597 58.316c13.797 0 25.305-4.368 34.48-13.1 9.172-8.767 13.75-19.702 13.75-32.873 0-13.199-4.624-24.116-13.874-32.738-9.282-8.655-20.979-12.941-35.059-12.941-13.436 0-24.647 4.286-33.609 12.941-8.992 8.625-13.46 19.45-13.46 32.459 0 13.358 4.514 24.389 13.53 33.157 9.033 8.729 20.43 13.096 34.243 13.096zM206.083 46.19c-10.222 0-18.619-3.199-25.18-9.599-6.57-6.405-9.846-14.556-9.846-24.492 0-9.707 3.292-17.702 9.872-24.099 6.585-6.387 14.863-9.599 24.734-9.599 10.004 0 18.298 3.295 24.962 9.785 6.648 6.564 9.988 14.654 9.988 24.413 0 9.454-3.34 17.397-9.988 23.887-6.666 6.457-14.851 9.703-24.542 9.703zM425.038 57.047h12.088v-89.297h-12.873v69.491l-27.376-34.567h-2.352l-27.706 34.567v-69.491h-12.841v89.297h12.324l29.447-36.683 29.289 36.683zM613.425 57.047h12.056v-89.297h-12.841v69.491l-27.423-34.567h-2.351l-27.673 34.567v-69.491h-12.875v89.297h12.403l29.369-36.683 29.336 36.683zM793.392 57.047h12.857v-50.757c0-6.837-0.485-12.035-1.473-15.52-0.988-3.503-2.241-6.437-3.702-8.717-1.472-2.352-3.339-4.421-5.425-6.281-7.058-6.069-16.307-9.11-27.739-9.11-11.589 0-20.976 2.995-27.987 9.088-2.132 1.858-3.949 3.951-5.409 6.305-1.458 2.28-2.697 5.152-3.622 8.49-0.94 3.387-1.412 8.697-1.412 15.877v50.63h12.823v-50.757c0-8.412 0.94-14.269 2.885-17.538 1.911-3.292 4.848-5.925 8.751-7.9 3.903-1.978 8.511-2.966 13.857-2.966 7.545 0 13.735 1.975 18.485 5.95 2.54 2.135 4.344 4.632 5.427 7.526 1.112 2.918 1.677 7.87 1.677 14.928l0.005 50.751h0.001zM981.519 57.047h12.169v-89.297h-11.010l-59.832 68.84v-68.84h-11.979v89.297h10.287l60.365-69.421-0.001 69.421zM1097.796 57.047h50.551v-11.408l-37.661 0.002v-27.179h36.407v-11.439l-36.407-0.001v-27.888h38.949v-11.386h-51.835l-0.003 89.299zM258.563 142.677l-30.685-25.071c-3.591 3.74-16.259 17.779-38.069 42.226-16.762 18.805-40.515 45.69-71.279 80.717-4.115 4.704-8.515 9.454-16.463 11.893-7.785 2.4-11.886 0.94-60.413 0.94v30.488c16.031 0 53.898-0.887 65.421 1.858 17.213 4.093 25.612 12.527 32.589 18.846 5.989 5.496 11.21 12.355 15.672 20.461s6.718 18.987 6.718 32.613c0 12.495-3.292 23.253-9.869 32.245-6.561 9.022-15.576 15.639-27.095 19.873-9.406 3.543-19.285 5.725-29.635 6.446-10.398 0.729-19.983 1.095-28.717 1.095-5.809 0-10.279 0-13.374 0-3.066 0-5.347 0-6.782 0-0.565-30.857-0.94-58.036-1.105-81.603-0.125-23.511-0.189-40.161-0.189-49.898 0-22.233 0.157-52.394 0.471-90.534 0.345-38.171 0.589-62.071 0.823-71.813l-40.211 0.001c0.165 9.738 0.424 28.553 0.763 56.501 0.345 27.978 0.533 62.81 0.533 104.471 0 8.099 0 23.095 0 44.975 0 21.902-0.447 61.791-1.293 119.68 1.623 0 9.714 0.203 24.358 0.643 14.613 0.416 28.043 0.675 40.373 0.675 14.111 0 27.846-0.844 41.158-2.476 13.311-1.599 26.286-5.081 38.963-10.475 16.061-6.829 28.785-16.825 38.21-30.073 9.409-13.265 14.111-28.826 14.111-46.7 0-23.095-7.849-43.189-21.16-59.29-15.052-18.274-27.714-25.119-40.35-32.598v-1.239c22.358-25.956 46.889-52.737 73.583-80.349 26.655-27.595 41.001-42.426 42.945-44.529zM465.726 255.13h-175.49c0.171-17.128 3.777-32.817 10.944-47.131 7.12-14.26 18.063-26.13 32.763-35.514 9.361-5.983 20.070-10.43 32.080-13.414 11.978-3.010 26.372-4.467 43.258-4.467 9.188 0 17.654 0.243 25.353 0.807 7.668 0.565 12.418 0.918 14.205 1.124l-4.375-33.070c-1.316-0.179-5.598-0.419-12.889-0.776-7.292-0.353-15.883-0.535-25.76-0.535-25.935 0-48.513 3.358-67.702 10.107-19.199 6.735-34.957 16-47.298 27.855-10.505 9.902-19.442 22.546-26.827 37.983-7.369 15.403-11.039 32.496-11.039 51.367 0 18.502 2.711 35.199 8.215 50.127 5.536 14.942 13.781 28.819 24.789 41.659 9.58 11.007 21.435 19.503 35.561 25.511 14.183 6.013 28.889 9.022 44.082 9.022 15.099 0 28.457-2.258 40.124-6.799 11.651-4.593 21.779-11.477 30.324-20.743 9.565-10.411 16.887-23.205 21.888-38.365 5.016-15.234 7.619-33.463 7.792-54.747zM428.096 282.372c-2.619 20.212-9.454 36.111-20.509 47.603-11.101 11.558-25.729 17.255-43.823 17.255-18.111 0-33.232-5.81-45.37-17.475-12.136-11.696-20.539-27.453-25.259-47.382l134.961-0.002zM715.515 248.639c0-26.585-6.508-49.437-19.583-68.535-13.012-19.145-30.667-33.405-52.901-42.789-14.441-6.178-30.905-10.693-49.407-13.522-18.468-2.823-40.673-4.209-66.635-4.209-3.574 0-7.197 0-10.913 0-3.763 0-7.337 0-10.725 0 0.219 12.489 0.471 35.631 0.83 69.546 0.296 33.845 0.471 74.619 0.471 122.312 0 29.181-0.094 57.497-0.328 84.889-0.221 27.376-0.517 55.349-0.972 83.915h38.93l-0.707-112.232c33.176-0.321 59.755-3.308 79.731-8.891 19.895-5.589 36.549-13.17 49.783-22.759 13.716-9.856 24.255-22.241 31.515-37.025 7.287-14.849 10.909-31.743 10.909-50.7zM676.565 247.738c0 19.575-5.472 35.985-16.557 49.257-11.053 13.257-25.322 22.9-42.772 28.834-9.030 3.105-18.769 5.497-29.306 7.191-10.492 1.695-21.293 2.546-32.441 2.546-2.087 0-4.235 0-6.413 0-2.165 0-4.029 0-5.503 0 0-3.551-0.079-16.455-0.313-38.688-0.189-22.264-0.299-40.579-0.299-54.965 0-27.025 0.11-46.073 0.299-57.292 0.235-11.131 0.313-22.466 0.313-33.938 17.844 0 34.102 1.333 48.794 4.014 14.752 2.655 27.453 6.82 38.1 12.516 15.554 8.225 27.093 19.067 34.713 32.597 7.606 13.498 11.383 29.475 11.383 47.929zM799.712 416.636h-42.726v42.177h42.726v-42.177zM797.158 123.461h-38.24c0.203 2.588 0.485 18.591 0.799 47.979 0.297 29.399 0.486 53.648 0.486 72.837 0 16.691-0.093 35.115-0.189 55.137-0.093 20.054-0.471 43.581-1.095 70.533h38.24c-0.312-23.378-0.659-45.274-0.875-65.671-0.251-20.358-0.423-38.508-0.423-54.415 0-37.853 0.189-68.214 0.643-91.099 0.462-22.897 0.654-34.663 0.654-35.301zM895.846 123.461h-38.272c0.235 1.93 0.547 25.647 0.847 71.144 0.283 45.542 0.472 83.289 0.472 113.298 0 19.31-0.096 43.69-0.189 73.167-0.048 29.414-0.44 62.481-1.128 99.173h38.272c-0.409-25.017-0.751-53.947-0.938-86.768-0.235-32.865-0.361-60.594-0.361-83.125 0-49.147 0.235-92.155 0.661-128.986 0.448-36.829 0.636-56.137 0.636-57.903zM1148.393 119.801c-0.989 0-4.079-0.025-9.27-0.125-5.205-0.096-9.36-0.096-12.465-0.096-30.652 0-54.706 1.324-72.139 3.975-17.359 2.657-34.338 7.957-50.912 15.921-21.591 10.372-38.052 24.153-49.231 41.344-11.211 17.152-16.808 36.291-16.808 57.365 0 24.617 6.256 46.434 18.783 65.523 12.511 19.018 30.558 33.876 54.143 44.599 13.779 6.485 29.666 11.376 47.632 14.699 17.796 3.326 35.388 5.002 52.65 5.002l-0.659 112.232h38.272c0-3.278-0.235-25.966-0.689-68.143-0.44-42.114-0.613-84.863-0.613-128.139 0-34.221 0.173-65.122 0.456-92.807 0.345-27.625 0.613-51.438 0.849-71.351zM1110.778 290.697c0 6.46 0 13.578 0 21.307 0 7.793 0 15.648 0 23.559-16.291 0-31.609-1.372-46.065-4.139-14.377-2.735-26.717-6.445-36.957-11.125-16.29-7.463-28.898-18.094-37.835-31.922-8.937-13.859-13.436-30.050-13.436-48.653 0-16.653 4.311-30.977 12.965-42.953 8.563-11.965 19.299-21.333 32.093-28.146 11.242-5.976 23.893-10.452 37.989-13.459 14.017-2.987 28.788-4.486 44.232-4.486 1.127 0 2.212 0 3.181 0 0.956 0 2.039 0 3.167 0 0 1.474 0.096 13.586 0.313 36.281 0.26 22.721 0.353 57.319 0.353 103.735z" horiz-adv-x="1156" />
<glyph unicode="&#xe00a;" d="M496 288h-176v176c0 8.837-7.163 16-16 16h-96c-8.837 0-16-7.163-16-16v-176h-176c-8.837 0-16-7.163-16-16v-96c0-8.837 7.163-16 16-16h176v-176c0-8.837 7.163-16 16-16h96c8.837 0 16 7.163 16 16v176h176c8.837 0 16 7.163 16 16v96c0 8.837-7.165 16-16 16z" />
<glyph unicode="&#xe00c;" d="M0 272v-96c0-8.837 7.163-16 16-16h480c8.837 0 16 7.163 16 16v96c0 8.837-7.163 16-16 16h-480c-8.837 0-16-7.163-16-16z" />
<glyph unicode="&#xe00d;" d="M252.723 469.735c-135.731-1.819-244.275-113.307-242.458-249.012 1.817-135.731 113.305-244.275 249.037-242.483 135.705 1.843 244.275 113.305 242.457 249.037-1.867 135.731-113.355 244.275-249.035 242.458zM258.585 30.003c-107.136-1.459-195.149 84.249-196.608 191.411-1.408 107.137 84.276 195.149 191.439 196.582 107.136 1.433 195.149-84.249 196.583-191.411s-84.251-195.123-191.413-196.583zM139.597 108.697c0 0 116.967 16.051 166.861 65.945 49.895 49.895 65.945 166.861 65.945 166.861s-116.939-16.075-166.834-65.943c-49.895-49.92-65.971-166.863-65.971-166.863zM230.784 250.317c20.967 20.992 61.056 35.866 95.463 45.107-9.241-34.329-24.192-74.727-45.031-95.539-13.927-13.927-36.505-13.927-50.432 0-13.952 13.926-13.952 36.507 0 50.432z" />
<glyph unicode="&#xe00e;" d="M64 352v-320h448v320h-448zM480 85.333l-64 106.667-72.533-60.445-55.467 92.445-192-160v256h384v-234.667zM128 240c0-26.51 21.49-48 48-48s48 21.49 48 48c0 26.51-21.49 48-48 48s-48-21.49-48-48zM448 416h-448v-320h32v288h416z" />
<glyph unicode="&#xe00f;" d="M256 439.040c-118.784 0-215.040-96.307-215.040-215.040 0-118.784 96.281-215.040 215.040-215.040s215.040 96.281 215.040 215.040c0 118.759-96.281 215.040-215.040 215.040zM282.163 197.837v-103.091l-52.327-0.001v103.091l-103.117 0.001v52.327h103.091v103.117h52.352v-103.091h103.091v-52.352h-103.091z" />
<glyph unicode="&#xe010;" d="M256 439.040c-118.784 0-215.040-96.307-215.040-215.040 0-118.784 96.281-215.040 215.040-215.040s215.040 96.281 215.040 215.040c0 118.759-96.281 215.040-215.040 215.040zM385.28 250.163v-52.352h-258.56v52.352h258.56z" />
<glyph unicode="&#xe011;" d="M38.4 300.749h435.2c14.592 0 12.211 15.565 4.941 18.099s-88.141 33.101-102.221 33.101h-23.040v76.8h-194.56v-76.8h-23.040c-14.080 0-94.951-30.566-102.221-33.101s-9.677-18.099 4.941-18.099zM478.72 272.589h-445.44c-14.080 0-28.16-16.64-28.16-30.72v-89.6c0-14.080 14.080-30.72 28.16-30.72h50.739l-22.579-128h389.12l-22.579 128h50.739c14.080 0 28.16 16.64 28.16 30.72v89.6c0 14.080-14.080 30.72-28.16 30.72zM112.64 44.749l35.84 166.4h215.040l35.815-166.4h-286.695z" />
<glyph unicode="&#xe012;" d="M378.351 310.588l-15.825-32.272c15.137-12.979 24.728-32.24 24.728-53.723 0-23.689-5.371-45.108-23.225-57.959l15.297-27.285c23.353 20.955 38.059 51.358 38.059 85.213-0.017 34.285-15.123 65.071-39.034 86.026zM495.803 423.597l-22.265-27.013c41.527-45.332 67.806-105.736 67.806-172.056 0-66.207-26.231-126.532-67.615-171.848l22.235-27.573c47.362 53.324 76.053 122.248 76.053 199.421-0.017 76.966-29.077 145.777-76.214 199.070zM436.724 368.403l-19.821-28.5c29.443-29.571 48.113-70.331 48.113-115.359 0-45.939-19.421-87.418-49.919-117.149l20.604-27.349c36.844 37.627 59.029 87.659 59.029 144.483 0.002 55.767-22.344 106.423-58.007 143.873zM0 287.826v-129.313c0-16.48 14.322-37.627 31.969-37.627h96.338v206.821h-96.338c-17.647 0-31.969-23.417-31.969-39.881zM277.185 421.903l-133.965-92.343v-211.793l133.965-93.349c17.647 0 42.966 13.363 42.966 29.843v337.798c0 16.48-25.32 29.843-42.966 29.843z" horiz-adv-x="572" />
<glyph unicode="&#xe013;" d="M507.44 16.752c6.096-6.096 6.096-15.984 0-22.096l-22.096-22.096c-6.112-6.096-16-6.096-22.096 0l-154.688 154.688c-1.68 1.68-2.8 3.664-3.552 5.776-31.728-23.184-70.688-37.024-113.008-37.024-106.032 0-192 85.968-192 192s85.968 192 192 192c106.032 0 192-85.968 192-192 0-42.32-13.84-81.28-37.024-113.008 2.112-0.752 4.096-1.856 5.776-3.552l154.688-154.688zM192 416c-70.688 0-128-57.312-128-128s57.312-128 128-128 128 57.312 128 128c0 70.688-57.312 128-128 128z" />
<glyph unicode="&#xe014;" d="M740.359 283.042l-172.019 172.025-171.976-172.011 48.178-48.177 89.755 89.761v-185.238h-486.575v-68.131h554.713v253.356l89.747-89.762z" horiz-adv-x="813" />
<glyph unicode="&#xe600;" d="M95.918 132.841c-1.6 0.534-3.32 0.747-5.106 0.587-3.040-0.226-4.733-0.466-7.319-0.96-1.773-0.32-3.373-0.96-4.772-1.933-1.626-1.067-2.813-2.587-3.533-4.533-0.773-2.067-0.587-4.533 0.6-7.399 0.56-1.253 1.32-2.426 2.266-3.466 0.906-1.013 1.987-1.906 3.32-2.773 1.28-0.827 2.639-1.493 4.052-1.973 1.666-0.573 3.306-0.747 4.892-0.534 1.466 0.2 2.933 0.786 4.4 1.773 1.253 0.827 2.386 1.853 3.386 3.066 0.867 1.040 1.653 2.133 2.293 3.253 0.867 1.48 1.306 3.053 1.293 4.173 0.36 2.959-0.013 5.266-1.173 7.065-1.12 1.747-2.706 3.013-4.6 3.653zM145.444 139.413c-1.573 0.534-3.333 0.76-5.132 0.6-2.973-0.24-4.666-0.48-7.292-0.973-1.786-0.32-3.386-0.973-4.799-1.92-1.613-1.093-2.786-2.627-3.506-4.546-0.773-2.079-0.587-4.546 0.587-7.412 0.546-1.213 1.293-2.373 2.266-3.44 0.907-1.013 2.027-1.947 3.319-2.813 1.306-0.827 2.653-1.48 4.040-1.947 1.667-0.573 3.32-0.76 4.919-0.534 1.48 0.2 2.959 0.8 4.386 1.773 1.253 0.827 2.346 1.813 3.413 3.053 0.88 1.080 1.653 2.173 2.267 3.253 0.867 1.493 1.306 3.053 1.293 4.159 0.387 2.973 0.013 5.306-1.16 7.079-1.133 1.773-2.733 3.013-4.6 3.666zM194.929 145.986c-1.587 0.534-3.306 0.747-5.106 0.6-3.093-0.253-4.799-0.493-7.305-0.973-1.786-0.32-3.413-0.973-4.76-1.906-1.639-1.080-2.839-2.613-3.559-4.56-0.773-2.079-0.587-4.56 0.587-7.359 0.547-1.24 1.293-2.44 2.267-3.506 0.933-1.013 2.026-1.947 3.306-2.76 1.293-0.84 2.667-1.533 4.040-1.986 1.679-0.573 3.333-0.747 4.946-0.534 1.427 0.2 2.919 0.786 4.412 1.773 1.28 0.853 2.413 1.906 3.346 3.039 0.88 1.053 1.639 2.133 2.32 3.32 0.84 1.453 1.293 3 1.293 4.186 0.333 2.92-0.013 5.212-1.186 7.052-1.12 1.733-2.706 2.973-4.6 3.613zM326.536 190.125c-0.466 5.719-1.827 11.545-4.012 17.358-2.159 5.772-4.973 10.959-8.332 15.517-3.453 4.613-7.439 8.292-11.825 10.959-9.145 5.493-19.77 3.852-27.103-1.799-3.386-2.6-6.265-5.839-8.586-9.638-2.226-3.666-4.053-7.812-5.373-12.265-1.307-4.346-2.307-8.719-2.973-13.118-0.68-4.44-1.013-8.812-0.986-13.051 0.026-4.266 0.226-7.972 0.64-11.132 1.387-10.478 4.146-18.384 8.372-24.156 4.32-5.879 9.399-9.719 15.118-11.358 3.479-1 7.039-1.267 10.611-0.8 2.267 0.293 4.586 0.92 6.879 1.813 5.639 2.213 10.785 5.772 15.305 10.585s7.999 10.825 10.345 17.877c2.373 7.106 3.026 14.971 1.92 23.209zM310.085 172.928c-1.627-4.973-3.826-9.238-6.505-12.678-2.627-3.36-5.599-5.853-8.839-7.452-3.026-1.453-5.746-1.8-8.452-1.12-2.693 0.733-5.279 2.773-7.705 6.092-2.627 3.56-4.613 9.118-5.945 16.331-0.293 2.24-0.426 4.866-0.387 7.999 0.014 3.106 0.293 6.359 0.813 9.719 0.507 3.426 1.253 6.865 2.2 10.332 0.906 3.32 2.159 6.373 3.666 9.038 1.44 2.56 3.146 4.692 5.132 6.319 1.747 1.48 3.8 2.346 6.305 2.693 2.507 0.32 4.719-0.147 6.825-1.413 2.399-1.4 4.572-3.573 6.505-6.373 2.053-2.973 3.839-6.519 5.306-10.558 1.453-4.039 2.373-8.305 2.706-12.758 0.507-5.839-0.014-11.265-1.627-16.171zM401.471 207.402c-1.693 6.772-3.226 13.051-4.76 19.611-1.533 3.386-3.346 6.025-5.533 8.119-2.173 2.079-4.706 3.679-7.492 4.746-2.666 1.026-5.546 1.626-8.572 1.773-7.572 0.333-15.904-1.133-21.37-5.399-3.373-2.6-6.026-5.866-7.932-9.665-1.839-3.639-3.186-7.732-4.012-12.145-0.733-4.186-1.226-8.425-1.426-12.718-0.187-4.266-0.12-8.466 0.226-12.572 0.334-4.053 0.72-7.679 1.16-10.878 0.44-3.399 0.827-6.586 1.16-9.625 0.387-3.506 1.133-6.425 2.253-8.918 1.28-3 3.386-5.266 6.252-6.719 5.346-2.693 15.464-1.587 22.183 2.893 3 1.973 5.786 4.36 8.332 7.092 2.507 2.68 4.786 5.692 6.799 8.906 0.68 1.053 1.333 2.067 1.973 3.079 1.28-3.333 2.399-6.853 3.32-10.519 1.573-6.053 2.546-12.278 2.933-18.49 0.36-6.119 0.026-12.225-1.040-18.171-1.013-5.799-2.893-11.118-5.559-15.811-2.599-4.586-6.212-8.586-10.719-11.865-4.452-3.24-10.132-5.399-16.77-6.385-4.586-0.613-9.345-0.68-14.185-0.187-4.586 0.466-8.945 1.666-12.998 3.56 0.040 0.48 0.134 1.12 0.253 1.933l0.733 4.306c0.346 2.026 0.64 4.066 0.8 6.065l0.36 4.506-4.466-0.6c-5.719-0.76-9.225-2.693-10.745-5.933-1.267-2.666-1.587-6.065-1.013-10.332 0.707-5.226 2.627-9.305 5.799-12.171 2.933-2.653 6.546-4.56 10.719-5.626 3.88-1 8.118-1.466 12.598-1.387 4.266 0.080 8.332 0.387 12.132 0.88l0.080 0.014 0.040 0.014c9.105 1.48 16.864 4.212 23.050 8.118 6.185 3.892 11.265 8.719 15.051 14.331 3.76 5.586 6.479 11.865 8.052 18.69 1.56 6.599 2.373 13.704 2.426 21.090 0.067 7.305-0.4 14.851-1.4 22.423-1.013 7.586-2.307 15.091-3.826 22.556-1.546 7.412-3.146 14.558-4.866 21.41zM381.087 210.402c0.28-2.173 0.307-4.719 0.173-7.639-0.187-3-0.587-6.132-1.24-9.412-0.64-3.213-1.533-6.425-2.706-9.558-1.133-3.013-2.546-5.853-4.24-8.412-1.613-2.44-3.44-4.386-5.613-5.945-2-1.453-4.252-2.333-6.599-2.653-1.173-0.080-1.44 0.253-1.533 0.334-0.68 0.813-1.2 1.853-1.56 3.173-0.44 1.507-0.707 3.053-0.786 4.733-0.16 1.947-0.293 3.666-0.493 5.186-0.267 2.039-0.52 4.639-0.747 7.812-0.253 3.173-0.334 6.479-0.346 9.945 0 3.386 0.214 6.825 0.68 10.279 0.387 3.213 1.147 6.226 2.267 8.945 1.013 2.507 2.426 4.652 4.186 6.373 1.56 1.533 3.493 2.453 5.853 2.76 2.079 0.28 3.839 0.080 5.346-0.626 1.627-0.76 2.959-1.799 4.053-3.173 1.12-1.4 1.947-3.106 2.493-5.106 0.573-2.079 0.84-4.266 0.813-7.012zM476.659 163.529v0.4l1.866 0.12c4 0.214 7.852 0.56 11.611 1.053 0 0 0 0 0.014 0.014 2.786 0.36 5.533 0.813 8.185 1.346 6.546 1.307 12.198 3.613 16.824 6.865 4.72 3.333 8.359 7.732 10.825 13.091 2.439 5.359 3.266 12.132 2.48 20.264-0.613 4.692-2.067 9.425-4.346 14.144-2.293 4.666-5.226 8.879-8.745 12.518-3.599 3.72-7.786 6.613-12.491 8.572-7.265 3.026-16.384 2.786-22.463 0.080-1.973-0.88-3.946-2.079-5.813-3.546-1.68-1.333-3.333-2.813-4.959-4.452-0.36 2.946-0.786 5.959-1.28 9.092-0.906 6.012-1.959 12.025-3.186 18.024-1.213 5.973-2.479 11.798-3.826 17.49-1.36 5.653-2.627 10.825-3.786 15.504l-0.8 3.159-14.651-1.946 21.637-131.006 12.904-0.786zM476.406 189.245l-0.147 13.185c-0.053 4-0.067 6.786-0.080 7.986 0.253 1.827 0.786 3.853 1.56 5.999 0.76 2.173 1.786 4.2 3.053 6.053 1.253 1.853 2.733 3.413 4.36 4.72 1.4 1.133 2.826 1.773 4.266 1.946l2.333 0.226c4.452-1.293 8.026-2.72 10.611-4.252 2.546-1.48 4.546-3.066 5.919-4.76 1.36-1.666 2.32-3.573 2.946-5.839 0.747-2.56 1.32-5.519 1.76-8.892 0.48-3.613 0.32-7.012-0.466-10.145-0.813-3.106-2.133-5.786-4.079-8.172-1.906-2.373-4.386-4.373-7.319-5.933-4.946-2.599-12.238-3.706-16.944-3.573-0.853 0.040-2.479 0.44-5.053 2.173l-2.653 1.786c-0.014 2.399-0.053 4.906-0.067 7.492zM539.556 230.653c1.547-9.665 3-18.331 4.346-26.009l3.293-18.637c1.386-8.038 1.506-8.666 2.573-9.345l5.319-5.039 1.919 0.426c2.96 0.707 4.372 2.426 5.053 3.746 0.667 1.32 1.080 2.693 1.307 4.332 0.146 1.387 0.134 2.8-0.040 4.159-0.12 0.853-0.2 1.613-0.213 2.893l-0.48 8.279-0.040 0.28c-0.44 2.333-1.053 5.706-1.733 10.132l-5.653 33.981c-1.080 6.692-2.226 13.464-3.386 20.303l-3.48 20.21c-1.2 6.679-2.24 12.891-3.199 18.637-0.986 5.786-1.853 10.851-2.626 15.264-0.787 4.32-1.307 7.706-1.639 10.159l-0.48 1.387c-1.453 2.479-3.373 4.159-5.679 4.986-1.853 0.666-3.933 1.026-6.212 1.066l-4.212 0.054 2.093-20.29c1-6.599 2.226-14.398 3.72-23.463l9.452-57.511zM572.217 277.911c4.413 0.573 8.012 2.693 10.652 6.239 2.6 3.533 3.653 7.412 3.12 11.518-0.374 2.76-1.48 4.919-3.24 6.385-1.533 1.267-3.386 2.080-5.519 2.48-1.787 0.32-3.613 0.44-5.492 0.333-3.653-0.186-7.665-0.386-9.879-3.053-0.947-1.106-1.653-2.386-2.106-3.746-0.494-1.387-0.72-2.88-0.693-4.452 0-1.293 0.106-2.48 0.226-3.493 0.427-3.266 1.6-6.132 3.439-8.546 1.573-2.026 4.492-4.332 9.492-3.666zM589.748 256.635l-0.626 1.427c-2.293 3.119-4.852 3.199-6.946 2.973-1.013-0.24-2.199-0.466-3.613-0.653l-3.746-0.493 14.571-84.654 4.092 1.52c0.68 0.253 1.253 0.4 2.653 0.534l2.919 0.187 2.706 0.973c0.88 0.613 2.333 2.067 1.947 4.973-0.653 5.999-1.506 12.145-2.533 18.437-1.053 6.293-2.266 12.505-3.613 18.704l-4.026 18.25c-1.36 6.025-2.639 11.971-3.786 17.824zM670.216 186.259l0.534 2.546c1.639 8.052 2.96 15.784 4.026 23.13 1.040 7.332 1.96 14.637 2.746 21.89 0.813 7.239 1.44 14.665 1.986 22.29l1.667 25.076c-0.28 2.026-1.493 3.599-3.36 4.213-0.827 0.293-1.827 0.493-3.053 0.613l-3.066 0.226c-0.813 0.054-1.587 0.187-2.333 0.36l-4.133 1.147-7.879-73.788-51.232 69.549-9.892-12.918 61.537-85.973 12.452 1.639zM736.698 223.466c0.573-5.439 1.013-10.132 1.346-13.998 0.374-4.572 0.32-6.505 0.2-7.332l-0.534-4.039 16.077-0.334-0.44 4.146c-0.707 6.106-1.48 11.931-2.346 17.424-0.827 5.279-1.32 10.518-1.453 15.637-0.173 4.933 0.226 10.145 1.2 15.477 0.907 5.159 2.786 10.679 5.306 15.904 3.093 4.452 6.092 7.132 8.879 7.972 2.653 0.8 4.999 0.707 7.025-0.28 2.266-1.12 4.24-3.039 5.905-5.652 1.72-2.733 2.706-5.599 3.093-9.292 0.266-0.96 0.6-2.706 0.986-5.213 0.386-2.56 0.787-5.493 1.173-8.826 0.386-3.373 0.827-6.972 1.36-10.825 0.494-3.786 0.88-7.412 1.226-10.825l2-18.050 14.011-0.080 0.053 3.613c0.053 1.786-0.027 5.039-0.16 9.785-0.187 4.746-0.547 10.119-1.146 16.157-0.6 5.986-1.613 12.371-3.026 19.011-1.453 6.692-3.466 12.864-5.905 18.344-2.573 5.746-5.933 10.531-10.052 14.251-4.426 4.040-9.918 5.986-17.65 5.626-2.866-0.387-5.546-1.293-7.919-2.666-2.48-1.413-4.72-3.066-6.679-4.893-1.187-1.080-2.279-2.226-3.24-3.373l-12.705 59.191-13.904 0.254 6.013-35.941c1.067-6.559 2.146-13.411 3.293-20.823 1.053-7.132 2.106-14.238 3.093-21.344 1.027-7.132 1.947-14.051 2.76-20.77 0.84-6.706 1.547-12.798 2.159-18.237zM819.698 222.76c1.933-3.426 4.319-6.305 7.052-8.532 2.919-2.36 6.279-3.866 10.052-4.493 2.027-0.32 4.212-0.346 6.533-0.053 1.853 0.267 3.826 0.733 5.239 1.253 0.853 0.134 2.427 0.466 4.72 1.067 2.133 0.546 4.399 1.2 6.826 1.933 2.453 0.733 4.76 1.48 6.933 2.253 2.159 0.8 3.746 1.373 4.813 1.786l2.266 2.013c0.52 0.64 1.040 1.32 1.639 2.147 0.573 0.84 1.067 1.719 1.427 2.639 0.6 1.333 0.787 2.587 0.626 3.76l-0.466 3.613-3.613-0.48c-2.053-0.28-4.666-0.746-7.759-1.44-5.759-1.293-12.518-2.239-19.317-2.373-3.199-0.066-6.092 0.267-8.639 0.987-2.346 0.653-4.266 1.76-5.933 3.399-1.48 1.466-2.453 3.666-2.813 6.519l-0.466 3.466c-0.187 1.427-0.333 3.053-0.466 4.906-0.106 1.893-0.187 3.839-0.266 5.893-0.080 1.973-0.106 3.799-0.080 5.519 0.027 1.226 0.134 2.293 0.36 3.439l40.567 13.225 0.733 1.147c1.48 2.373 1.973 5.026 1.506 7.865-0.413 2.426-1.386 4.839-2.786 7.212-1.453 2.333-3.226 4.452-5.359 6.345s-4.426 3.533-6.852 4.853c-2.519 1.4-5.079 2.453-7.599 3.133-7.732 2.093-15.385-0.173-21.476-6.212-3.639-3.6-6.799-7.852-9.345-12.678-2.573-4.839-4.452-9.985-5.572-15.291-1.173-5.399-1.453-10.345-0.933-14.331 0.134-3.88 0.466-7.879 1.093-11.958 0.626-4.173 1.56-8.159 2.733-11.865 1.187-3.813 2.76-7.412 4.626-10.665zM830.043 279.084c0.733 2.053 1.72 4.040 2.919 5.892 1.226 1.84 2.6 3.413 4.066 4.706 1.386 1.187 2.133 1.506 2.399 1.6 6.385 0.066 9.425-0.534 10.905-1.027 1.48-0.546 1.907-1 1.947-1-0.027-0.133-0.213-0.76-1.226-1.786-1.533-1.507-3.573-2.96-6.119-4.293-2.653-1.4-5.706-2.587-9.012-3.519-2.080-0.573-4.12-1.093-6.119-1.226 0.053 0.214 0.16 0.413 0.24 0.653zM881.982 284.217c0.68-2.959 1.36-6.452 2.106-10.531l2.399-12.878c0.88-4.452 1.746-8.852 2.653-13.131 0.88-4.292 1.693-8.172 2.373-11.691 0.68-3.573 1.48-7.519 2.453-11.851l0.76-3.253 14.918 1.973-1.067 4.012c-3.146 11.798-5.053 21.837-5.653 29.809-0.6 7.865-0.28 14.291 0.907 19.17 1.146 4.586 2.866 8.026 5.079 10.265 2.266 2.239 4.76 3.68 7.625 4.399 3.066 0.76 6.279 0.813 9.639 0.214 3.613-0.626 7.212-1.667 10.625-3.066l3.439-1.426 1.36 3.493c2.027 5.279 0.813 8.905-0.573 11.012-1.773 2.706-4.48 4.692-7.999 5.853-3.146 1.040-6.852 1.493-11.038 1.306-3.986-0.16-7.972-0.827-11.878-2.013-3.986-1.187-7.679-3.040-10.985-5.479-1.36-1-2.6-2.106-3.693-3.32-0.52 0.827-1.146 1.587-1.827 2.28-1.427 1.48-3.173 2.439-5.159 2.813l-2.6 0.066c-1.333-0.173-2.679-0.666-4.013-1.44l-2.106-1.226 1.2-8.826c0.187-1.453 0.386-2.839 0.626-4l0.427-2.533zM956.811 340.849l6.905-28.063c1.226-4.892 2.319-9.358 3.413-13.385 1.067-3.973 1.88-7.305 2.519-9.985 0.68-2.959 1.146-4.76 1.333-5.239l1.307-4.692c0.494-1.827 1.146-3.413 1.88-4.72 1.013-1.72 2.373-3 4.013-3.746 1.639-0.787 3.639-1.013 5.905-0.72 0.787 0.12 1.667 0.4 2.919 0.947 1.146 0.493 1.907 0.88 2.213 1.093l2.213 1.427-25.13 96.345-4.013-1.933c-1.533-0.747-2.453-1.026-2.946-1.12l-5.786-2.040-0.547-2.026c-0.266-1.013-0.28-2.226 0.106-5.239l0.333-2.373c0.106-0.946 0.333-2.213 0.707-3.746 0.626-2.866 1.52-6.479 2.653-10.785zM986.22 257.022c-2.6-0.76-4.72-2.306-6.279-4.613-1.587-2.267-2.319-4.866-2.24-7.745 0.106-2.773 1.12-5.532 3-8.185 1.907-2.639 4.786-4.813 8.826-6.666l2-0.28c2.106 0.28 4.039 1.133 5.732 2.519 1.453 1.2 2.653 2.626 3.6 4.252 0.88 1.533 1.533 3.28 1.933 5.146 0.307 1.799 0.386 3.6 0.16 5.306l-0.494 1.427c-2.453 3.986-5.026 6.559-7.865 7.892-2.399 1.12-4.72 1.533-6.905 1.24l-1.466-0.293zM979.341 199.95c-143.804-0.653-302.592-26.196-440.531-55.445-36.514-7.745-72.029-18.237-102.624-34.954 185.651 48.486 388.313 70.123 580.71 77.094-9.718 17.81-25.996 13.358-37.554 13.305z" horiz-adv-x="1092" />
<glyph unicode="&#xe601;" d="M449.2 190.064v-126.336c0-8.832-4.992-15.984-15.968-15.984-2.656 0-9.232 5.664-17.312 14.192v339.104c8.080 8.528 14.656 14.192 17.312 14.192 11.968 0 15.968-7.152 15.968-15.968v-129.536c21.648-0.608 41.808-18.16 41.808-39.824 0-21.68-20.16-39.232-41.808-39.84zM192.24 159.264c0.992 0 0 144.464 0 144.464 109.712 0 174.752 48.16 209.024 81.184v-306.832c-34.272 33.008-99.312 81.184-209.024 81.184zM128.336 32.768l-31.952 126.832h-31.968c0 0-9.504 21.568-13.824 47.936-8.144 0-15.264 0-18.144 0-8.816 0-15.968 7.152-15.968 15.984v15.968c0 8.832 7.152 15.984 15.968 15.984 2.88 0 10 0 18.144 0 4.336 26.368 13.824 47.92 13.824 47.92h111.84v-143.792h-31.952l4.032-15.968h15.952l7.984-31.968h-15.904l19.888-78.896h-47.92z" />
<glyph unicode="&#xf003;" d="M475.429 50.286v219.429q-9.143-10.286-19.714-18.857-76.571-58.857-121.714-96.571-14.571-12.286-23.714-19.143t-24.714-13.857-29.286-7h-0.571q-13.714 0-29.285 7t-24.714 13.857-23.714 19.143q-45.143 37.714-121.715 96.571-10.571 8.571-19.715 18.857v-219.429q0-3.714 2.715-6.429t6.429-2.714h420.571q3.714 0 6.429 2.714t2.714 6.429zM475.429 350.571v7t-0.143 3.714-0.857 3.571-1.571 2.571-2.571 2.143-4 0.714h-420.571q-3.715 0-6.429-2.714t-2.715-6.429q0-48 42-81.143 55.143-43.429 114.571-90.571 1.714-1.429 10-8.429t13.143-10.714 12.714-9 14.429-7.857 12.286-2.571h0.571q5.714 0 12.286 2.571t14.429 7.857 12.714 9 13.143 10.714 10 8.429q59.429 47.143 114.571 90.571 15.429 12.285 28.714 33t13.286 37.571zM512 361.143v-310.857q0-18.857-13.429-32.286t-32.286-13.429h-420.571q-18.857 0-32.285 13.429t-13.429 32.286v310.857q0 18.857 13.429 32.286t32.285 13.429h420.571q18.857 0 32.286-13.429t13.429-32.286z" />
<glyph unicode="&#xf060;" d="M438.628 224v-36.571q0-15.143-9.286-25.857t-24.143-10.714h-201.143l83.715-84q10.857-10.286 10.857-25.714t-10.857-25.714l-21.429-21.714q-10.571-10.571-25.714-10.571-14.857 0-26 10.571l-186 186.286q-10.571 10.571-10.571 25.714 0 14.857 10.571 26l186 185.714q10.857 10.857 26 10.857 14.857 0 25.714-10.857l21.429-21.143q10.857-10.857 10.857-26t-10.857-26l-83.714-83.715h201.143q14.857 0 24.143-10.714t9.286-25.857z" horiz-adv-x="439" />
<glyph unicode="&#xf061;" d="M420.342 205.714q0-15.429-10.571-26l-186-186q-11.143-10.571-26-10.571-14.571 0-25.714 10.571l-21.429 21.429q-10.857 10.857-10.857 26t10.857 26l83.715 83.714h-201.143q-14.857 0-24.143 10.714t-9.286 25.857v36.571q0 15.143 9.286 25.857t24.143 10.714h201.143l-83.714 84q-10.857 10.286-10.857 25.714t10.857 25.715l21.429 21.429q10.857 10.857 25.715 10.857 15.143 0 26-10.857l186-186q10.571-10 10.571-25.714z" horiz-adv-x="439" />
<glyph unicode="&#xf062;" d="M460.171 202.571q0-14.571-10.571-25.714l-21.429-21.429q-10.857-10.857-26-10.857-15.429 0-25.714 10.857l-84 83.714v-201.143q0-14.857-10.714-24.143t-25.857-9.286h-36.571q-15.143 0-25.857 9.286t-10.714 24.143v201.143l-84-83.715q-10.285-10.857-25.715-10.857t-25.715 10.857l-21.429 21.429q-10.857 10.857-10.857 25.714 0 15.143 10.857 26l186 186q10 10.571 25.715 10.571 15.429 0 26-10.571l186-186q10.571-11.143 10.571-26z" horiz-adv-x="475" />
<glyph unicode="&#xf063;" d="M460.171 242.286q0-15.143-10.571-25.714l-186-186.286q-11.143-10.571-26-10.571-15.143 0-25.714 10.571l-186 186.286q-10.857 10.286-10.857 25.714 0 15.143 10.857 26l21.143 21.429q11.143 10.571 26 10.571 15.143 0 25.715-10.571l84-84v201.143q0 14.857 10.857 25.714t25.715 10.857h36.571q14.857 0 25.715-10.857t10.857-25.714v-201.143l84 84q10.571 10.571 25.714 10.571 14.857 0 26-10.571l21.429-21.429q10.571-11.143 10.571-26z" horiz-adv-x="475" />
<glyph unicode="&#xf095;" d="M401.942 125.714q0-7.714-2.857-20.143t-6-19.571q-6-14.286-34.857-30.286-26.857-14.571-53.143-14.571-7.714 0-15 1t-16.429 3.571-13.571 4.143-15.857 5.857-14 5.143q-28 10-50 23.714-36.571 22.571-75.571 61.571t-61.571 75.571q-13.715 22-23.715 50-0.857 2.571-5.143 14t-5.857 15.857-4.143 13.571-3.571 16.429-1 15q0 26.286 14.571 53.143 16 28.857 30.285 34.857 7.143 3.143 19.571 6t20.143 2.857q4 0 6-0.857 5.143-1.714 15.143-21.714 3.143-5.429 8.571-15.429t10-18.143 8.857-15.286q0.857-1.143 5-7.143t6.143-10.143 2-8.143q0-5.714-8.143-14.286t-17.715-15.714-17.715-15.143-8.143-13.143q0-2.571 1.429-6.429t2.429-5.857 4-6.857 3.285-5.429q21.715-39.143 49.715-67.143t67.143-49.714q0.571-0.286 5.429-3.286t6.857-4 5.857-2.429 6.429-1.429q5.143 0 13.143 8.143t15.143 17.714 15.714 17.714 14.286 8.143q4 0 8.143-2t10.143-6.143 7.143-5q7.143-4.286 15.286-8.857t18.143-10 15.429-8.571q20-10 21.714-15.143 0.857-2 0.857-6z" horiz-adv-x="402" />
<glyph unicode="&#xf09a;" d="M159.886 362.571q-14 0-17.715-4.429t-3.714-19v-25.143h62q4.571 0 7.714-3.429 3.143-3.714 2.857-8.286l-4-57.143q-0.571-4.286-3.571-7.286t-7.286-3h-57.714v-219.429q0-4.571-3.143-7.714t-7.429-3.143h-71.429q-4.571 0-7.715 3.143t-3.143 7.714v219.429h-34.857q-4.571 0-7.715 3.286t-3.143 7.857v57.143q0 4.571 3.143 7.715t7.715 3.143h34.857v29.429q0 50.571 25.143 75.285t76.285 24.715q34.286 0 64.286-8.571 4-1.143 6.286-4.571t1.714-7.429l-7.714-55.714q-0.571-4.571-4.571-7.429-4-2.571-8.571-1.714-21.714 4.571-38.571 4.571z" horiz-adv-x="219" />
<glyph unicode="&#xf09f;" d="M109.371 96q0-22.857-16-38.857t-38.857-16-38.857 16-16 38.857 16 38.857 38.857 16 38.857-16 16-38.857zM255.657 60.857q0.571-8-4.857-13.714-5.143-6-13.429-6h-38.571q-7.143 0-12.286 4.714t-5.714 11.857q-6.286 65.429-52.714 111.857t-111.857 52.714q-7.143 0.571-11.857 5.714t-4.715 12.286v38.571q0 8.286 6 13.429 4.857 4.857 12.286 4.857h1.429q45.715-3.715 87.429-23t74-51.857q32.571-32.286 51.857-74t23-87.429zM401.942 60.286q0.571-7.714-5.143-13.429-5.143-5.714-13.143-5.714h-40.857q-7.429 0-12.714 5t-5.571 12.143q-3.429 61.429-28.857 116.714t-66.143 96-96 66.143-116.715 29.143q-7.143 0.286-12.143 5.571t-5 12.429v40.857q0 8 5.715 13.143 5.143 5.143 12.571 5.143h0.857q74.857-3.715 143.286-34.286t121.571-84q53.429-53.143 84-121.571t34.286-143.286z" horiz-adv-x="402" />
<glyph unicode="&#xf0c9;" d="M438.628 96v-36.571q0-7.429-5.429-12.857t-12.857-5.429h-402.286q-7.429 0-12.857 5.429t-5.429 12.857v36.571q0 7.429 5.429 12.857t12.857 5.429h402.286q7.429 0 12.857-5.429t5.429-12.857zM438.628 242.286v-36.571q0-7.429-5.429-12.857t-12.857-5.429h-402.286q-7.429 0-12.857 5.429t-5.429 12.857v36.571q0 7.429 5.429 12.857t12.857 5.429h402.286q7.429 0 12.857-5.429t5.429-12.857zM438.628 388.571v-36.571q0-7.429-5.429-12.857t-12.857-5.429h-402.286q-7.429 0-12.857 5.429t-5.429 12.857v36.571q0 7.429 5.429 12.857t12.857 5.429h402.286q7.429 0 12.857-5.429t5.429-12.857z" horiz-adv-x="439" />
<glyph unicode="&#xf0d6;" d="M219.2 150.933h109.6v27.4h-36.533v127.866h-32.538l-42.242-39.102 21.977-22.833q11.987 10.56 15.698 16.269h0.571v-82.2h-36.533v-27.4zM365.334 224q0-19.979-5.993-40.529t-16.983-38.245-28.969-28.827-39.388-11.131-39.388 11.131-28.97 28.827-16.983 38.245-5.994 40.529 5.994 40.529 16.983 38.245 28.97 28.827 39.388 11.131 39.388-11.131 28.969-28.827 16.983-38.245 5.993-40.529zM511.467 150.933v146.134q-30.255 0-51.661 21.406t-21.406 51.661h-328.801q0-30.255-21.406-51.661t-51.661-21.406v-146.134q30.255 0 51.661-21.406t21.406-51.661h328.801q0 30.255 21.406 51.661t51.661 21.406zM548 388.4v-328.801q0-7.421-5.423-12.843t-12.843-5.423h-511.467q-7.421 0-12.843 5.423t-5.423 12.843v328.801q0 7.421 5.423 12.843t12.843 5.423h511.467q7.421 0 12.843-5.423t5.423-12.843z" horiz-adv-x="548" />
<glyph unicode="&#xf100;" d="M178.857 86.857q0-3.714-2.857-6.571l-14.286-14.286q-2.857-2.857-6.571-2.857t-6.571 2.857l-133.143 133.143q-2.857 2.857-2.857 6.571t2.857 6.571l133.143 133.143q2.857 2.857 6.571 2.857t6.571-2.857l14.286-14.286q2.857-2.857 2.857-6.571t-2.857-6.571l-112.285-112.286 112.285-112.286q2.857-2.857 2.857-6.571zM288.571 86.857q0-3.714-2.857-6.571l-14.286-14.286q-2.857-2.857-6.571-2.857t-6.571 2.857l-133.143 133.143q-2.857 2.857-2.857 6.571t2.857 6.571l133.143 133.143q2.857 2.857 6.571 2.857t6.571-2.857l14.286-14.286q2.857-2.857 2.857-6.571t-2.857-6.571l-112.286-112.286 112.286-112.286q2.857-2.857 2.857-6.571z" horiz-adv-x="292" />
<glyph unicode="&#xf101;" d="M169.714 205.714q0-3.714-2.857-6.571l-133.143-133.143q-2.857-2.857-6.571-2.857t-6.571 2.857l-14.286 14.286q-2.857 2.857-2.857 6.571t2.857 6.571l112.285 112.286-112.285 112.286q-2.857 2.857-2.857 6.571t2.857 6.571l14.285 14.286q2.857 2.857 6.571 2.857t6.571-2.857l133.143-133.143q2.857-2.857 2.857-6.571zM279.429 205.714q0-3.714-2.857-6.571l-133.143-133.143q-2.857-2.857-6.571-2.857t-6.571 2.857l-14.285 14.286q-2.857 2.857-2.857 6.571t2.857 6.571l112.285 112.286-112.285 112.286q-2.857 2.857-2.857 6.571t2.857 6.571l14.285 14.286q2.857 2.857 6.571 2.857t6.571-2.857l133.143-133.143q2.857-2.857 2.857-6.571z" horiz-adv-x="292" />
<glyph unicode="&#xf102;" d="M306.971 105.143q0-3.714-2.857-6.571l-14.286-14.286q-2.857-2.857-6.571-2.857t-6.571 2.857l-112.286 112.286-112.285-112.286q-2.857-2.857-6.571-2.857t-6.571 2.857l-14.285 14.286q-2.857 2.857-2.857 6.571t2.857 6.571l133.143 133.143q2.857 2.857 6.571 2.857t6.571-2.857l133.143-133.143q2.857-2.857 2.857-6.571zM306.971 214.857q0-3.714-2.857-6.571l-14.286-14.286q-2.857-2.857-6.571-2.857t-6.571 2.857l-112.286 112.286-112.285-112.286q-2.857-2.857-6.571-2.857t-6.571 2.857l-14.285 14.286q-2.857 2.857-2.857 6.571t2.857 6.571l133.143 133.143q2.857 2.857 6.571 2.857t6.571-2.857l133.143-133.143q2.857-2.857 2.857-6.571z" horiz-adv-x="329" />
<glyph unicode="&#xf103;" d="M306.971 233.143q0-3.714-2.857-6.571l-133.143-133.143q-2.857-2.857-6.571-2.857t-6.571 2.857l-133.143 133.143q-2.857 2.857-2.857 6.571t2.857 6.571l14.285 14.286q2.857 2.857 6.571 2.857t6.571-2.857l112.285-112.285 112.285 112.286q2.857 2.857 6.571 2.857t6.571-2.857l14.286-14.286q2.857-2.857 2.857-6.571zM306.971 342.857q0-3.714-2.857-6.571l-133.143-133.143q-2.857-2.857-6.571-2.857t-6.571 2.857l-133.143 133.143q-2.857 2.857-2.857 6.571t2.857 6.571l14.285 14.286q2.857 2.857 6.571 2.857t6.571-2.857l112.285-112.285 112.285 112.285q2.857 2.857 6.571 2.857t6.571-2.857l14.286-14.286q2.857-2.857 2.857-6.571z" horiz-adv-x="329" />
</font>
</defs>
</svg>
