<?xml version="1.0" encoding="utf-8"?>
<!-- Generator: Adobe Illustrator 22.1.0, SVG Export Plug-In . SVG Version: 6.00 Build 0)  -->
<svg version="1.1" id="Lag_1" xmlns="http://www.w3.org/2000/svg" xmlns:xlink="http://www.w3.org/1999/xlink" x="0px" y="0px"
	 viewBox="0 0 341.8 122.2" style="enable-background:new 0 0 341.8 122.2;" xml:space="preserve">
<style type="text/css">
	.st0{fill:#3F6051;stroke:#68A386;stroke-width:0.6;stroke-miterlimit:10;}
</style>
<text transform="matrix(1 0 0 1 981.5 1686.5)" style="font-family:'MyriadPro-Regular'; font-size:12px;">565656</text>
<text transform="matrix(1 0 0 1 981.5 1686.5)" style="font-family:'MyriadPro-Regular'; font-size:12px;">565656</text>
<g>
	<g>
		<g>
			<path class="st0" d="M28.9,68l-8.1,2.2c-2.8,0.8-5.2,1.5-7.2,2.3c-2,0.8-3.1,1.3-3.2,1.5c-0.1,0.2-0.1,0.8,0,1.7
				c0.1,0.9,0.1,2.5,0,4.9c-0.1,1.8-0.1,3.3,0.1,4.4c1.1-0.2,2.8-0.7,4.8-1.4c2.1-0.7,3.6-1.2,4.4-1.6c2.4-1.2,4.4-1.9,5.8-2.2
				c2.8-0.6,4.4-0.1,4.8,1.6c0.3,1.2,0,2.2-0.6,2.8c-0.7,0.6-1.8,1.2-3.5,1.8c-1,0.3-2.1,0.7-3.4,1.2c-0.7,0.3-1.5,0.5-2.5,0.9
				c-4.8,1.6-7.6,2.7-8.5,3.2l0,0c-0.3,0.2-0.5,0.4-0.6,0.8c-0.1,0.4-0.1,1.7,0,4.1c0.1,2.4,0.3,4.1,0.4,5c0.2,0.6,0.7,0.9,1.4,0.7
				c0.9-0.2,3.1-0.9,6.6-2.1c3.5-1.2,5.7-2.1,6.6-2.4c2.3-1,3.9-1.6,4.6-1.8c2.3-0.2,3.7,0.7,4.1,2.4c0.2,0.8,0,1.5-0.4,2
				c-1.6,1.2-4,2.2-7.1,3.1c-2.4,0.7-5.3,1.6-8.7,2.8c-3,1.3-5.8,2.3-8.6,2.9c-1.4,0.3-2.6,0.2-3.3-0.3c-0.8-0.5-1.4-1.4-1.8-2.6
				L4.9,105c0-0.1,0-0.7,0.1-1.7c0.2-2.3,0.1-7.4-0.5-15.2C3.9,80.3,3.5,76,3.4,75.1c0,0-0.1-0.1-0.2-0.2C3,74.8,2.7,74.5,2.3,74
				c-0.4-0.5-0.7-1.1-0.8-1.7c-0.1-0.3-0.1-0.6-0.1-0.8c0-0.4,0.3-0.8,0.9-1.4c0.6-0.5,1.2-0.8,1.8-1C5,69,5.9,68.9,6.8,68.8
				c1.5-0.3,6.2-1.9,14.1-4.7c2.6-0.9,4-1.4,4.1-1.4l0.4-0.1c3.2-0.9,5-0.2,5.5,2.1c0.1,0.4-0.1,1-0.5,1.8
				C29.9,67.2,29.4,67.7,28.9,68z"/>
			<path class="st0" d="M48.9,75.7c-0.2,0-0.2,2.1-0.2,6.3c0,4.2,0.1,6.7,0.3,7.5c0.3,1.5,0.7,2.4,1.1,3c0.4,0.5,1,0.7,1.7,0.5
				c1-0.2,1.9-0.6,2.8-1.1c0.8-0.5,1.9-1.6,3.1-3.1c0.8-1,1.5-1.5,2.1-1.6c0.5-0.1,1-0.1,1.3,0.2c0.4,0.2,0.6,0.5,0.7,0.9
				c0.3,1.6-0.6,3.6-2.7,6.1c-2.1,2.5-4.6,4.1-7.4,4.7c-2.4,0.5-4.3,0.2-5.8-0.9c-1.5-1.1-2.6-3-3.1-5.6c-0.5-2.4-0.6-7.4-0.4-15
				c-1.1,0.4-1.9,0.6-2.3,0.7l-0.6,0.1c-0.8,0.2-1.7,0.1-2.7-0.3c-1-0.4-1.6-1.1-1.8-2.3c-0.3-1.5,0.4-2.4,2.1-2.8l5.7-1.4
				c0.3-2.3,0.5-5.3,0.6-9c0-2.3,0.9-3.6,2.7-4c1-0.2,1.8-0.1,2.5,0.4c0.7,0.5,1.1,1.1,1.3,1.8c0.1,0.3-0.1,3.2-0.5,8.7
				c5.6-1.7,8.6-2.6,9.2-2.7c0.9-0.2,1.6-0.2,2,0c0.4,0.2,0.6,0.7,0.8,1.5c0.3,1.6-0.8,2.9-3.4,3.9L48.9,75.7z"/>
			<path class="st0" d="M106.5,76.8c-3.4,7.2-7.2,11.2-11.6,12.2c-1.6,0.3-3.1,0-4.5-1c-1.4-1-2.3-2.5-2.8-4.5
				c-1-4.7,0-10.2,3.1-16.4c3.1-6.2,6.7-9.8,11-10.7c2.2-0.5,3.8,0.3,5,2.4c2-0.4,3.2,0.1,3.6,1.7c0.2,0.7,0.3,2.1,0.3,4.2
				c0.1,3.8,0.3,6.8,0.8,9c0.5,2.3,1,3.9,1.5,4.7c0.5,0.9,0.9,1.4,1.1,1.7c0.2,0.3,0.7,0.5,1.5,0.6c0.8,0.2,1.2,0.6,1.4,1.2
				c0.2,0.9-0.1,1.8-0.9,2.6c-0.8,0.8-1.7,1.3-2.7,1.5C109.8,86.6,107.6,83.6,106.5,76.8z M101.7,62.3c-1.8,0.4-3.7,2.9-5.7,7.5
				c-2,4.6-2.8,8.3-2.2,11.1c0.3,1.5,0.8,2.1,1.4,2c2.1-0.4,4.3-2.9,6.6-7.3c2.3-4.4,3.1-8,2.5-10.8c-0.2-0.9-0.5-1.6-1.1-2
				C102.7,62.3,102.2,62.2,101.7,62.3z"/>
			<path class="st0" d="M142.2,55.2L142.2,55.2L142.2,55.2c-0.9,0.8-1.7,1.5-2.2,2.1c-1,1.1-2,2.2-3.1,3.4c-1.2,1.4-2,2.5-2.6,3.4
				c-0.5,0.7-0.7,1.2-0.6,1.5c0.1,0.3,1.4,1.4,3.9,3.1c2.6,1.7,4.5,3,6,3.6c1.4,0.7,2.7,0.9,3.9,0.6l1.2-0.3c0.4-0.1,0.8,0,1.1,0.2
				c0.3,0.2,0.5,0.6,0.6,1.1c0.2,0.7-0.1,1.7-0.8,2.8c-0.7,1.2-2.2,2-4.4,2.4c-1.3,0.3-2.7,0.1-4.3-0.6c-1.5-0.7-4-2.4-7.5-5.1
				c-2.8-2.2-4.3-3.3-4.5-3.3c-0.1,0-0.4,0.4-0.9,1.2c-0.5,0.8-0.8,1.4-0.9,1.7l0,0c0,1.5,0.3,3.5,0.8,5.9c0.3,1.2,0.1,2.2-0.4,3.1
				c-0.5,0.9-1.3,1.5-2.3,1.7c-1.1,0.2-1.9,0.1-2.6-0.4c-0.7-0.5-1.1-1-1.3-1.6c-0.1-0.6-0.2-2.1-0.2-4.4c0-4.4-0.5-10.2-1.4-17.3
				c-0.6-5.7-1-10.2-1.3-13.4c-0.2-3.2-0.3-5.3-0.2-6.4c0.1-1,0.5-1.9,1.1-2.7c0.6-0.7,1.3-1.2,2.1-1.4c0.8-0.2,1.5,0,2.1,0.6
				c0.6,0.6,1,1.3,1.2,2.2c0.2,1.2,0.5,5.8,0.6,14.1l0.1,3.6l0,0c0.3,5.3,0.5,8.4,0.7,9.2l6.6-9.2c3.3-4.9,6-7.6,7.9-8
				c1.9-0.4,3,0.2,3.3,1.7C144.5,52.4,143.8,54,142.2,55.2z"/>
			<path class="st0" d="M160.7,51.9c-0.2,0-0.2,2.1-0.2,6.3s0.1,6.7,0.3,7.5c0.3,1.5,0.7,2.4,1.1,3c0.4,0.5,1,0.7,1.7,0.5
				c1-0.2,1.9-0.6,2.8-1.1s1.9-1.6,3.1-3.1c0.8-1,1.5-1.5,2.1-1.6c0.5-0.1,1-0.1,1.3,0.2c0.4,0.2,0.6,0.5,0.7,0.9
				c0.3,1.6-0.6,3.6-2.7,6.1c-2.1,2.5-4.6,4.1-7.4,4.7c-2.4,0.5-4.3,0.2-5.8-0.9c-1.5-1.1-2.6-3-3.1-5.6c-0.5-2.4-0.6-7.4-0.4-15
				c-1.1,0.4-1.9,0.6-2.3,0.7l-0.6,0.1c-0.8,0.2-1.7,0.1-2.7-0.3c-1-0.4-1.6-1.1-1.8-2.3c-0.3-1.5,0.4-2.4,2.1-2.8l5.7-1.4
				c0.3-2.3,0.5-5.3,0.6-9c0-2.3,0.9-3.6,2.7-4c1-0.2,1.8-0.1,2.5,0.4c0.7,0.5,1.1,1.1,1.3,1.8c0.1,0.3-0.1,3.2-0.5,8.7
				c5.6-1.7,8.6-2.6,9.2-2.7c0.9-0.2,1.6-0.2,2,0c0.4,0.2,0.6,0.7,0.8,1.5c0.3,1.6-0.8,2.9-3.4,3.9L160.7,51.9z"/>
			<path class="st0" d="M178.1,52.4L178.1,52.4c-0.1-3.3-0.2-5.3-0.3-5.7c-0.3-1.3-0.2-2.5,0.2-3.5c0.4-1,1.1-1.6,2.1-1.8
				c1.2-0.3,2.2-0.2,3,0.3c0.8,0.4,1.3,1,1.4,1.7c0.2,0.7,0.1,2.3-0.1,4.6l0,0.6c-0.2,3.6-0.2,6.6,0,8.8c0.3,2.2,0.5,4,0.8,5.3
				c0.2,1.1,0.7,2.5,1.5,4.2c0.1,0.3,0.2,0.6,0.2,0.8c0.1,0.4-0.2,1-0.8,1.9c-0.6,0.9-1.4,1.4-2.3,1.6c-2.4,0.5-3.9-1-4.7-4.6
				c-0.6-3-1-6.8-1.1-11.3C178.1,54.2,178.1,53.2,178.1,52.4z M186.3,27.6c0.3,1.3-0.1,2.5-1,3.7c-0.9,1.2-1.8,1.9-2.7,2.1
				c-1.1,0.2-2.1,0-3.1-0.7c-1-0.7-1.6-1.5-1.8-2.4c-0.3-1.3-0.1-2.4,0.6-3.4c0.7-1,1.7-1.6,3.3-1.9c1.2-0.3,2.2-0.1,3.1,0.4
				C185.5,25.9,186.1,26.7,186.3,27.6z"/>
			<path class="st0" d="M200.5,65.9c-0.2-1.2-1.5-3.6-3.7-7.1c-4.5-7.1-7.1-12.2-7.8-15.5c-0.6-2.9,0.2-4.6,2.5-5.1
				c2.2-0.5,3.7,0.6,4.2,3.3c0.4,1.7,0.7,2.9,0.9,3.6c0.2,0.7,0.8,2,1.7,3.8c0.9,1.8,1.7,3.3,2.4,4.4c0.4,0.7,1,1.6,1.6,2.8
				c0.4,0.7,0.7,1.2,0.9,1.5c0.1-0.2,0.3-1,0.7-2.3c0.2-0.8,1-3.2,2.4-7.2c1.4-4,2.7-7.2,3.9-9.6c1.2-2.4,2.1-4,2.8-4.6
				c0.7-0.6,1.5-1,2.4-1.2c0.9-0.2,1.8-0.1,2.5,0.4c0.7,0.5,1.2,1.2,1.4,2c0.2,1-0.3,2.2-1.6,3.5c-1.2,1.3-2.8,4-4.5,8.1
				c-1.8,4.1-3.5,9.2-5.3,15.2c-1,3.4-2.1,5.3-3.4,5.6C203.3,67.6,202,67.1,200.5,65.9z"/>
			<path class="st0" d="M231.7,36.8c-0.2,0-0.2,2.1-0.2,6.3c0,4.2,0.1,6.7,0.3,7.5c0.3,1.5,0.7,2.4,1.1,3c0.4,0.5,1,0.7,1.7,0.5
				c1-0.2,1.9-0.6,2.8-1.1c0.8-0.5,1.9-1.6,3.1-3.1c0.8-1,1.5-1.5,2.1-1.6c0.5-0.1,1-0.1,1.3,0.2c0.4,0.2,0.6,0.5,0.7,0.9
				c0.3,1.6-0.6,3.6-2.7,6.1c-2.1,2.5-4.6,4.1-7.4,4.7c-2.4,0.5-4.3,0.2-5.8-0.9c-1.5-1.1-2.6-3-3.1-5.6c-0.5-2.4-0.6-7.4-0.4-15
				c-1.1,0.4-1.9,0.6-2.3,0.7l-0.6,0.1c-0.8,0.2-1.7,0.1-2.7-0.3c-1-0.4-1.6-1.1-1.8-2.3c-0.3-1.5,0.4-2.4,2.1-2.8l5.7-1.4
				c0.3-2.3,0.5-5.3,0.6-9c0-2.3,0.9-3.6,2.7-4c1-0.2,1.8-0.1,2.5,0.4c0.7,0.5,1.1,1.1,1.3,1.8c0.1,0.3-0.1,3.2-0.5,8.7
				c5.6-1.7,8.6-2.6,9.2-2.7c0.9-0.2,1.6-0.2,2,0c0.4,0.2,0.6,0.7,0.8,1.5c0.3,1.6-0.8,2.9-3.4,3.9L231.7,36.8z"/>
			<path class="st0" d="M273,3.4c1.9-0.4,3.1,0.4,3.6,2.5c0.2,1,0.3,2,0.3,3.2c0,1.2-0.2,4.1-0.4,8.7c-0.2,3.4-0.1,7,0.2,10.9
				c0.3,3.9,0.7,6.9,1.2,9c0.5,2.3,1.2,4.9,2.2,8c0.3,0.8,0.4,1.3,0.5,1.5c0.2,1.1,0,2.1-0.6,3c-0.6,0.9-1.4,1.5-2.3,1.7
				c-1.3,0.3-2.3-0.1-3.1-1.2c-0.8-1.1-1.5-3.1-2.1-6c-1.3-6.3-2.2-13.8-2.5-22.6c-0.3-8.8-0.2-14.1,0.4-15.8
				C271,4.6,271.9,3.7,273,3.4z"/>
			<path class="st0" d="M286.6,29.3L286.6,29.3c-0.1-3.3-0.2-5.3-0.3-5.7c-0.3-1.3-0.2-2.5,0.2-3.5c0.4-1,1.1-1.6,2.1-1.9
				c1.2-0.3,2.2-0.2,3,0.3c0.8,0.4,1.3,1,1.4,1.7c0.2,0.7,0.1,2.3-0.1,4.6l0,0.6c-0.3,3.6-0.2,6.6,0,8.8c0.3,2.2,0.5,4,0.8,5.3
				c0.2,1.1,0.7,2.5,1.5,4.2c0.1,0.3,0.2,0.6,0.3,0.8c0.1,0.4-0.2,1-0.8,1.9c-0.6,0.9-1.4,1.4-2.3,1.6c-2.4,0.5-3.9-1-4.7-4.6
				c-0.6-3-1-6.8-1.1-11.3C286.6,31.1,286.6,30.2,286.6,29.3z M294.8,4.6c0.3,1.3-0.1,2.5-1,3.7c-0.9,1.2-1.8,1.9-2.7,2.1
				c-1.1,0.2-2.1,0-3.1-0.7c-1-0.7-1.6-1.5-1.8-2.4c-0.3-1.3-0.1-2.4,0.6-3.4s1.7-1.6,3.3-1.9c1.2-0.3,2.2-0.1,3.1,0.4
				C294.1,2.9,294.6,3.6,294.8,4.6z"/>
			<path class="st0" d="M309,42.8c-0.2-1.2-1.5-3.6-3.7-7.1c-4.5-7.1-7.1-12.2-7.8-15.5c-0.6-2.9,0.2-4.6,2.5-5.1
				c2.2-0.5,3.7,0.6,4.2,3.3c0.4,1.7,0.7,2.9,0.9,3.6c0.2,0.7,0.8,2,1.7,3.8s1.7,3.3,2.4,4.4c0.4,0.7,1,1.6,1.6,2.8
				c0.4,0.7,0.7,1.2,0.9,1.5c0.1-0.2,0.3-1,0.7-2.3c0.2-0.8,1-3.2,2.4-7.2c1.4-4,2.7-7.2,3.9-9.6c1.2-2.4,2.1-4,2.8-4.6
				c0.7-0.6,1.5-1,2.4-1.2c0.9-0.2,1.8-0.1,2.5,0.4c0.7,0.5,1.2,1.2,1.4,2c0.2,1-0.3,2.2-1.6,3.5c-1.3,1.3-2.8,4-4.5,8.1
				c-1.8,4.1-3.5,9.2-5.3,15.2c-1,3.4-2.1,5.3-3.4,5.6C311.9,44.6,310.5,44.1,309,42.8z"/>
		</g>
		<g>
			<path class="st0" d="M125.7,118.4c-0.4,0.1-0.9,0-1.4-0.2c-0.5-0.2-0.9-0.6-1-1.1c-0.1-0.3,0-0.6,0.3-1.1
				c0.2-0.5,0.5-0.8,0.8-0.9c0.3-0.2,1.3-0.4,2.9-0.8c0.3-0.1,1.1-0.3,2.4-0.7c1.3-0.4,2.5-0.7,3.5-0.9c0.5-0.1,1.3-0.2,2.5-0.3
				c1-0.1,1.7-0.2,2.1-0.2c0.6-0.1,1.6-0.5,3.1-1.1l0,0c1.5-0.6,2.6-1,3.5-1.2c2.9-0.6,4.5-0.1,4.9,1.6c0.1,0.7,0.1,1.2-0.1,1.5
				c-0.2,0.3-0.7,0.5-1.5,0.7c-0.3,0.1-0.8,0.1-1.4,0.2c-0.6,0-1,0-1.1,0.1c-0.5,0.1-1.3,0.4-2.5,0.8c-0.3,0.1-0.5,0.2-0.8,0.3
				c-0.2,0.1-0.5,0.2-0.7,0.3c-0.9,0.3-2.2,0.7-3.8,1l-7.4,1.6c-0.4,0.1-0.8,0.1-1.3,0.1c-0.4,0-0.9,0-1.4-0.1l-0.2,0L125.7,118.4z"
				/>
			<path class="st0" d="M180,112.1c-0.2-0.7-1.5-1.3-4-1.9c-3-0.7-5-1.5-6-2.3c-1-0.8-1.6-1.8-1.8-2.9c-0.5-2.4,0.4-4.7,2.7-7.1
				c2.3-2.3,4.6-3.7,6.9-4.2c2.3-0.5,3.6,0.3,4,2.2c0.1,0.5,0,1-0.5,1.6c-0.4,0.5-0.8,0.8-1.2,0.9c-0.1,0-0.4,0-0.8-0.1
				c-0.4-0.1-0.7-0.1-0.9-0.1c-1.2,0.3-2.4,0.9-3.7,2c-1.3,1.1-1.8,2.2-1.5,3.3c0.1,0.5,0.5,1,1.1,1.4c0.6,0.4,1.8,0.8,3.5,1.2
				c2.5,0.6,4.3,1.3,5.2,2c0.9,0.7,1.5,1.6,1.7,2.7c0.4,2-0.6,3.9-2.9,5.7c-2.4,1.9-5.2,3.1-8.5,3.8c-2.4,0.5-3.8-0.1-4.2-1.9
				c-0.1-0.6,0-1.2,0.4-1.8c0.4-0.6,0.9-0.9,1.6-1c0.3-0.1,0.7,0,1.2,0c0.6,0.1,1.1,0.1,1.5,0c1.3-0.3,2.5-0.7,3.8-1.4
				C178.9,113.5,179.7,112.8,180,112.1z"/>
			<path class="st0" d="M201.3,105.9c-2.5,5.4-5.4,8.4-8.7,9.1c-1.2,0.3-2.3,0-3.4-0.8c-1.1-0.8-1.8-1.9-2.1-3.4
				c-0.8-3.5,0-7.7,2.3-12.3s5.1-7.4,8.3-8c1.6-0.3,2.9,0.2,3.7,1.8c1.5-0.3,2.4,0.1,2.7,1.3c0.1,0.6,0.2,1.6,0.2,3.1
				c0.1,2.9,0.3,5.1,0.6,6.8c0.4,1.7,0.7,2.9,1.1,3.5c0.4,0.6,0.6,1.1,0.8,1.3c0.2,0.2,0.5,0.4,1.1,0.5c0.6,0.1,0.9,0.4,1,0.9
				c0.1,0.7-0.1,1.3-0.7,1.9c-0.6,0.6-1.3,1-2,1.1C203.8,113.3,202.1,111,201.3,105.9z M197.7,95c-1.3,0.3-2.8,2.2-4.3,5.6
				c-1.5,3.4-2.1,6.2-1.6,8.3c0.2,1.1,0.6,1.6,1,1.5c1.6-0.3,3.2-2.1,4.9-5.4c1.7-3.3,2.3-6,1.9-8.1c-0.1-0.7-0.4-1.2-0.8-1.5
				C198.5,95.1,198.1,95,197.7,95z"/>
			<path class="st0" d="M218,108.1c0.1,1.4-0.5,2.3-1.9,2.6c-1.8,0.4-2.9-0.7-3.4-3.2c-0.9-4.1-1.4-7.6-1.6-10.6
				c-0.1-2.3-0.4-4.6-0.9-6.8c-0.1-0.5,0-1,0.2-1.4c0.3-0.4,0.7-0.7,1.3-0.8c2-0.4,3.3,0.6,3.8,3c0.2,0.8,0.2,2.9,0.2,6.3
				c0,2,0.1,3.5,0.2,4.3c2-9.2,4.6-14.1,7.7-14.8c1.2-0.3,2.3,0,3.3,0.8c1,0.8,1.8,2.9,2.6,6.3c0.7,3.1,1.2,4.6,1.5,4.5
				c0.2-0.1,0.8-1.7,1.5-5c0.9-3.7,1.8-6.2,2.7-7.5s2-2.1,3.2-2.4c1.5-0.3,2.7,0.1,3.6,1.2c0.9,1.1,1.9,3.2,2.8,6.2
				c0.7,2.4,1.4,4.1,2,5.3c0.6,1.2,1.4,1.8,2.3,2.1c0.7,0.2,1.2,0.6,1.3,1.2c0.1,0.6-0.1,1.2-0.8,2c-0.6,0.7-1.4,1.2-2.1,1.4
				c-1.4,0.3-2.6-0.2-3.6-1.3c-1.1-1.2-2.1-3.8-3.3-7.8c-0.6-1.9-1-3.2-1.3-3.8c-0.3-0.6-0.6-0.9-1-0.8c-0.3,0.1-0.6,0.6-1,1.7
				c-0.4,1.1-0.9,3.2-1.7,6.3c-0.7,2.8-1.3,4.8-2,6c-0.7,1.2-1.5,1.9-2.5,2.1c-0.8,0.2-1.6,0-2.5-0.5c-0.9-0.5-1.9-2.8-2.8-7
				c-0.9-3.7-1.5-5.5-1.9-5.4c-0.6,0.1-1.6,2.1-3,5.8C219.5,102,218.6,105.3,218,108.1z"/>
			<path class="st0" d="M259.1,99.4c0.1,1.4-0.5,2.3-1.9,2.6c-1.8,0.4-2.9-0.7-3.4-3.2c-0.9-4.1-1.4-7.6-1.6-10.6
				c-0.1-2.3-0.4-4.6-0.9-6.8c-0.1-0.5,0-1,0.2-1.4c0.3-0.4,0.7-0.7,1.3-0.8c2-0.4,3.3,0.6,3.8,3c0.2,0.8,0.2,2.9,0.2,6.3
				c0,2,0.1,3.5,0.2,4.3c2-9.2,4.6-14.1,7.7-14.8c1.2-0.3,2.3,0,3.3,0.8c1,0.8,1.8,2.9,2.6,6.3c0.7,3.1,1.2,4.6,1.5,4.6
				c0.2-0.1,0.8-1.7,1.5-5c0.9-3.7,1.8-6.2,2.7-7.5c0.9-1.3,2-2.1,3.2-2.4c1.5-0.3,2.7,0.1,3.6,1.2c0.9,1.1,1.9,3.2,2.8,6.2
				c0.7,2.4,1.4,4.1,2,5.3c0.6,1.2,1.4,1.8,2.3,2.1c0.7,0.2,1.2,0.6,1.3,1.2c0.1,0.6-0.1,1.2-0.8,2c-0.6,0.7-1.4,1.2-2.1,1.4
				c-1.4,0.3-2.6-0.2-3.6-1.3c-1.1-1.2-2.1-3.8-3.3-7.8c-0.6-1.9-1-3.2-1.3-3.8c-0.3-0.6-0.6-0.9-1-0.8c-0.3,0.1-0.6,0.6-1,1.7
				c-0.4,1.1-0.9,3.2-1.7,6.3c-0.7,2.8-1.3,4.8-2,6s-1.5,1.9-2.5,2.1c-0.8,0.2-1.6,0-2.5-0.5c-0.9-0.5-1.9-2.8-2.8-7
				c-0.9-3.7-1.5-5.5-1.9-5.4c-0.6,0.1-1.6,2.1-3,5.8C260.6,93.2,259.6,96.6,259.1,99.4z"/>
			<path class="st0" d="M311.6,82.3c0.3,1.4-0.5,3.3-2.4,5.7c-1.9,2.4-4.4,4-7.3,4.6c-2.3,0.5-4.2,0.1-5.8-1c-1.6-1.1-2.7-3-3.2-5.5
				c-0.8-3.7-0.2-7.5,1.7-11.4c2-3.8,4.4-6.1,7.4-6.7c1.5-0.3,2.8-0.1,3.9,0.7c1.1,0.8,1.8,1.8,2.1,3.1c0.5,2.3-0.2,4.8-1.9,7.4
				c-1.8,2.6-4.3,4.6-7.7,6.2c-0.4,0.2-0.5,0.5-0.4,0.8c0.1,0.6,0.6,1.2,1.2,1.7c0.7,0.5,1.5,0.6,2.5,0.4c2.7-0.6,5.1-2.5,7.1-5.9
				c0.4-0.6,0.8-1,1.3-1.1C310.9,81,311.4,81.4,311.6,82.3z M297.4,81.6c2-0.9,3.7-2.2,5-3.9c1.3-1.7,1.9-3.1,1.6-4.3
				c-0.1-0.4-0.3-0.8-0.6-1c-0.3-0.2-0.7-0.3-1-0.2c-1.2,0.2-2.3,1.4-3.3,3.4C298,77.5,297.4,79.6,297.4,81.6z"/>
			<path class="st0" d="M332.6,82c-0.9-1.1-1.8-3.2-2.8-6.4c-1-3.4-2-4.9-3.1-4.7c-1,0.2-2.2,2.3-3.9,6.4c-1.6,4.1-2.5,7-2.7,8.8
				c0,0.5-0.1,1-0.4,1.4c-0.3,0.4-0.5,0.6-0.9,0.7c-2,0.4-3.2-0.3-3.6-2.1c-0.1-0.6-0.2-2.1-0.3-4.4c-0.1-3-0.6-6.6-1.5-10.8
				c-0.1-0.6,0-1.4,0.4-2.2c0.4-0.8,0.9-1.3,1.5-1.4c0.8-0.2,1.4-0.1,1.9,0.2c0.5,0.3,0.9,1.3,1.3,3c0.3,1.3,0.4,3.8,0.4,7.6
				c1.5-7.4,4-11.5,7.5-12.2c3.1-0.7,5.4,1.4,7,6.2c1.6,4.9,2.7,7.2,3.4,7.1c0.3-0.1,0.6-0.2,1-0.4c0.4-0.3,0.8-0.4,1.1-0.5
				c0.6-0.1,1,0.2,1.2,0.9c0.1,0.7-0.1,1.5-0.9,2.5c-0.7,1-1.7,1.6-3.1,1.9C334.8,83.6,333.5,83.2,332.6,82L332.6,82z"/>
		</g>
	</g>
</g>
</svg>
